<?xml version="1.0" encoding="UTF-8" standalone="no"?>
<!-- Created with Inkscape (http://www.inkscape.org/) -->

<svg
   xmlns:dc="http://purl.org/dc/elements/1.1/"
   xmlns:cc="http://creativecommons.org/ns#"
   xmlns:rdf="http://www.w3.org/1999/02/22-rdf-syntax-ns#"
   xmlns:svg="http://www.w3.org/2000/svg"
   xmlns="http://www.w3.org/2000/svg"
   xmlns:sodipodi="http://sodipodi.sourceforge.net/DTD/sodipodi-0.dtd"
   xmlns:inkscape="http://www.inkscape.org/namespaces/inkscape"
   width="137.95813mm"
   height="94.492599mm"
   viewBox="0 0 137.95813 94.492599"
   version="1.1"
   id="svg7379"
   inkscape:version="0.92.5 (2060ec1f9f, 2020-04-08)"
   sodipodi:docname="drawing.svg">
  <defs
     id="defs7373" />
  <sodipodi:namedview
     id="base"
     pagecolor="#ffffff"
     bordercolor="#666666"
     borderopacity="1.0"
     inkscape:pageopacity="0.0"
     inkscape:pageshadow="2"
     inkscape:zoom="0.35"
     inkscape:cx="-142.69168"
     inkscape:cy="140.93468"
     inkscape:document-units="mm"
     inkscape:current-layer="layer1"
     showgrid="false"
     inkscape:window-width="1920"
     inkscape:window-height="1043"
     inkscape:window-x="0"
     inkscape:window-y="0"
     inkscape:window-maximized="1" />
  <metadata
     id="metadata7376">
    <rdf:RDF>
      <cc:Work
         rdf:about="">
        <dc:format>image/svg+xml</dc:format>
        <dc:type
           rdf:resource="http://purl.org/dc/dcmitype/StillImage" />
        <dc:title></dc:title>
      </cc:Work>
    </rdf:RDF>
  </metadata>
  <g
     inkscape:label="Layer 1"
     inkscape:groupmode="layer"
     id="layer1"
     transform="translate(-7.5157463,-94.653511)">
    <g
       id="g7580"
       transform="matrix(0.42038503,0,0,0.42038503,74.588064,104.438)">
      <path
         d="m -159.29117,120.15304 v 13.20271 l 118.639165,68.14502 0.73377,-12.23045 -119.372935,-69.11728"
         style="fill:#e2e2ed;fill-opacity:1;fill-rule:nonzero;stroke:none;stroke-width:0.03527778"
         id="path1116"
         inkscape:connector-curvature="0" />
      <g
         id="g1118"
         transform="matrix(0.04221727,0,0,-0.04221727,-519.55489,456.90307)">
        <path
           d="m 16300,8905.18 -4956.3,-2855.48 17.4,289.71 4934.8,2872.65 4.1,-306.88"
           style="fill:#cacae0;fill-opacity:1;fill-rule:nonzero;stroke:none"
           id="path1120"
           inkscape:connector-curvature="0" />
      </g>
      <g
         id="g1122"
         transform="matrix(0.04221939,0,0,-0.04221939,-519.55489,456.90307)">
        <path
           d="m 16182.3,9281.94 -1446.5,838.66 -94.1,54.6 -331.1,192 -94.2,54.6 -735.7,426.6 -1046,-611.7 -2.1,1.2 -3905.59,-2259.81 2832.39,-1637.12 8,-4.64 0.6,-0.34 770.8,446.83 1.5,-0.85 0.6,-0.34 1977.3,1156.27 95,55.55 304.6,178.13 94.8,55.41 1682.5,983.89 4.9,2.87 -117.7,68.19"
           style="fill:#eeeeff;fill-opacity:1;fill-rule:nonzero;stroke:none"
           id="path1124"
           inkscape:connector-curvature="0" />
      </g>
      <g
         id="g1126"
         transform="matrix(0.0405137,0,0,-0.0405137,-519.55489,456.90307)">
        <path
           d="m 12801.5,7667.93 -6.8,-143.58 3498.5,1825.34 6.8,143.59 -3498.5,-1825.35"
           style="fill:#5d567a;fill-opacity:1;fill-rule:nonzero;stroke:none"
           id="path1128"
           inkscape:connector-curvature="0" />
      </g>
      <path
         d="m -93.543978,87.131984 -0.275167,5.81731 92.6253304,59.115316 0.27517002,-5.81695 L -93.543978,87.131984"
         style="fill:#9999b1;fill-opacity:1;fill-rule:nonzero;stroke:none;stroke-width:0.03527778"
         id="path1130"
         inkscape:connector-curvature="0" />
      <g
         id="g1132"
         transform="matrix(0.0405137,0,0,-0.0405137,-519.55489,456.90307)">
        <path
           d="M 12801.5,7667.93 16300,9493.28 14013.6,10952.4 10515.3,9127.06 12801.5,7667.93"
           style="fill:#75728c;fill-opacity:1;fill-rule:nonzero;stroke:none"
           id="path1134"
           inkscape:connector-curvature="0" />
      </g>
      <g
         id="g1136"
         transform="matrix(0.03938094,0,0,-0.03938094,-519.55489,456.90307)">
        <path
           d="M 14294.6,10997.9 11320.3,9445.81 13325.7,8165.94 16300,9717.99 14294.6,10997.9"
           style="fill:#ffffff;fill-opacity:1;fill-rule:nonzero;stroke:none"
           id="path1138"
           inkscape:connector-curvature="0" />
      </g>
      <path
         d="M 7.4668754,117.07717 -37.960315,89.047574 c -1.10772,-0.68087 -2.82575,-0.82198 -3.82058,-0.30339 v 0 c -0.99131,0.51505 -0.89606,1.49577 0.21166,2.18016 L 3.8614854,118.95077 c 1.10773,0.68404 2.82575,0.82198 3.81706,0.30657 0.99131,-0.51541 0.89606,-1.49649 -0.21167,-2.18017"
         style="fill:#dddcdb;fill-opacity:1;fill-rule:nonzero;stroke:none;stroke-width:0.03527778"
         id="path1140"
         inkscape:connector-curvature="0" />
      <path
         d="m 16.212235,112.5341 -54.71935,-33.759416 c -1.10773,-0.68439 -2.82575,-0.82198 -3.81706,-0.30692 -0.99131,0.51506 -0.89606,1.49578 0.21167,2.18017 l 54.71583,33.760116 c 1.10772,0.68404 2.82575,0.82162 3.82058,0.30657 0.99131,-0.51541 0.89606,-1.49648 -0.21167,-2.18052"
         style="fill:#dddcdb;fill-opacity:1;fill-rule:nonzero;stroke:none;stroke-width:0.03527778"
         id="path1142"
         inkscape:connector-curvature="0" />
      <path
         d="m 24.954075,107.99138 -54.71583,-33.760476 c -1.10773,-0.680863 -2.82575,-0.818446 -3.82059,-0.30339 v 0 c -0.9913,0.515056 -0.89605,1.495777 0.21167,2.180167 l 54.71936,33.757659 c 1.10772,0.68368 2.82575,0.82161 3.81705,0.30621 0.99131,-0.51506 0.89606,-1.49614 -0.21166,-2.18017"
         style="fill:#dddcdb;fill-opacity:1;fill-rule:nonzero;stroke:none;stroke-width:0.03527778"
         id="path1144"
         inkscape:connector-curvature="0" />
      <path
         d="m 33.699435,103.44795 -54.71936,-33.757296 c -1.10772,-0.68439 -2.82575,-0.821973 -3.81706,-0.306917 -0.9913,0.515054 -0.89605,1.495777 0.21167,2.180167 l 54.71583,33.758706 c 1.10772,0.68369 2.82928,0.82163 3.82059,0.30622 0.9913,-0.51541 0.89605,-1.49649 -0.21167,-2.18088"
         style="fill:#dddcdb;fill-opacity:1;fill-rule:nonzero;stroke:none;stroke-width:0.03527778"
         id="path1146"
         inkscape:connector-curvature="0" />
      <path
         d="m 31.896735,92.398954 -44.1713,-27.25208 c -1.10772,-0.684387 -2.82575,-0.82197 -3.81706,-0.306916 -0.99483,0.515056 -0.89958,1.495779 0.21167,2.180166 l 44.16778,27.25208 c 1.11125,0.68439 2.82928,0.82198 3.82058,0.30692 0.99131,-0.51505 0.89606,-1.49578 -0.21167,-2.18017"
         style="fill:#dddcdb;fill-opacity:1;fill-rule:nonzero;stroke:none;stroke-width:0.03527778"
         id="path1148"
         inkscape:connector-curvature="0" />
      <g
         id="g1150"
         transform="matrix(0.03554412,0,0,-0.03554412,-519.55489,456.90307)">
        <path
           d="m 16266.2,10308.2 -1278.2,788.6 c -31.2,19.2 -79.5,23.1 -107.4,8.6 -27.9,-14.5 -25.2,-42.1 6,-61.3 l 1278,-788.6 c 31.2,-19.2 79.5,-23.1 107.5,-8.6 27.9,14.5 25.2,42.1 -5.9,61.3"
           style="fill:#dddcdb;fill-opacity:1;fill-rule:nonzero;stroke:none"
           id="path1152"
           inkscape:connector-curvature="0" />
      </g>
      <g
         id="g1154"
         transform="matrix(0.03608035,0,0,-0.03608035,-519.55489,456.90307)">
        <path
           d="m 16266.7,10280.9 -1516.5,935.7 c -30.7,18.9 -78.4,22.7 -105.9,8.5 -27.5,-14.3 -24.9,-41.5 5.8,-60.5 l 1516.6,-935.6 c 30.7,-19 78.4,-22.8 105.8,-8.5 27.5,14.3 24.9,41.5 -5.8,60.4"
           style="fill:#dddcdb;fill-opacity:1;fill-rule:nonzero;stroke:none"
           id="path1156"
           inkscape:connector-curvature="0" />
      </g>
      <g
         id="g1158"
         transform="matrix(0.03661692,0,0,-0.03661692,-519.55489,456.90307)">
        <path
           d="m 16267.2,10254.3 -1494.4,922 c -30.3,18.7 -77.2,22.4 -104.3,8.4 -27,-14.1 -24.4,-40.9 5.8,-59.6 l 1494.3,-921.9 c 30.2,-18.7 77.3,-22.5 104.3,-8.4 27.1,14.1 24.5,40.9 -5.7,59.5"
           style="fill:#dddcdb;fill-opacity:1;fill-rule:nonzero;stroke:none"
           id="path1160"
           inkscape:connector-curvature="0" />
      </g>
      <g
         id="g1162"
         transform="matrix(0.03734999,0,0,-0.03734999,-519.55489,456.90307)">
        <path
           d="m 15327,10509.2 973,-223.2 -600.9,785.9 -372.1,-562.7"
           style="fill:#babad6;fill-opacity:1;fill-rule:nonzero;stroke:none"
           id="path1164"
           inkscape:connector-curvature="0" />
      </g>
      <g
         id="g1166"
         transform="matrix(0.0360239,0,0,-0.0360239,-519.55489,456.90307)">
        <path
           d="m 16297.1,11364.4 c 2.9,62.1 -11.3,110.6 -37.9,143.8 -9,11 -19.2,20 -30.6,27.5 l -2023,1274 c 45.3,-29.8 71.8,-89 68.4,-171.2 -0.4,-9.6 -1.4,-19.1 -3,-28.6 -0.1,-3.2 -0.8,-6.3 -0.9,-9.5 -1.3,-6.3 -2.2,-12.2 -3.6,-18.5 -0.8,-6.8 -2.7,-13.7 -4.1,-20.5 -1.3,-4.7 -2.6,-9.4 -3.9,-14.2 -1.3,-4.7 -2.5,-8.9 -3.8,-13.6 -1.9,-5.8 -3.8,-12.1 -5.6,-18.4 -1.3,-3.1 -2.5,-6.7 -3.7,-10.4 -3.1,-6.8 -5.5,-13.6 -8.5,-20.3 -1.1,-3.2 -1.8,-5.8 -3,-8.9 -4.2,-9.4 -8.3,-18.8 -13,-28.1 -0.6,-1.1 -1.2,-2.1 -1.8,-3.1 -4.1,-8.3 -8.8,-16.6 -13.4,-24.9 -1.2,-2.6 -2.9,-5.2 -4.1,-7.3 -4.6,-7.7 -9.2,-15.5 -13.8,-23.2 -1.2,-1.6 -1.8,-3.1 -2.9,-4.2 -5.7,-8.7 -11.4,-17.5 -17.7,-26.2 -1.8,-2.6 -3.4,-4.7 -5.2,-7.2 -4.5,-6.2 -9.1,-12.3 -14.1,-18 -2.2,-3 -5.1,-6.6 -7.3,-9.7 -4.5,-4.6 -8.6,-9.7 -13,-14.3 -3.4,-4.1 -6.7,-8.2 -10.6,-12.2 -3.5,-3.6 -6.8,-7.2 -10.7,-10.7 -5.6,-6.1 -11.7,-11.7 -18.3,-17.7 -3.4,-3.6 -7.3,-7.1 -11.2,-10.7 -3.3,-2.5 -6.1,-5 -9.4,-7.5 -5,-4.5 -10,-8.6 -15.5,-12 -2.7,-2.5 -6,-5.1 -9.4,-7 -5.4,-4.5 -10.9,-8 -16.9,-12 -2.7,-1.4 -5.5,-3.4 -8.3,-5.4 -8.2,-5 -17,-9.9 -25.7,-14.2 -8.1,-4.4 -16.3,-8.3 -24.5,-11.6 -2.1,-1 -3.7,-1.4 -5.8,-2.4 -4.9,-1.9 -9.2,-3.3 -13.6,-4.7 -5.9,-1.8 -12.4,-3.6 -18.4,-5.5 -4.2,-0.9 -8,-1.7 -11.7,-2.6 -3.8,-0.9 -7.6,-1.3 -10.8,-1.6 -4.8,-0.9 -9.6,-1.2 -13.8,-1.5 -2.7,-0.4 -5.4,-0.3 -8,-0.7 -5.9,-0.2 -11.8,0 -17.1,0.8 -1,0.1 -2.6,-0.4 -3.7,0.2 -6.8,0.3 -13.1,1.7 -19,3 -1.6,0.6 -3.1,1.2 -4.7,1.3 -4.7,1.3 -9.4,3.1 -14.1,4.9 -1.6,0.6 -3.1,1.2 -4.1,1.8 -6.4,2.4 -11.5,5.3 -17.1,8.8 l 2023.5,-1274.1 1,-0.5 c 4.2,-2.9 8.3,-5.2 13,-7 1,-0.6 1.5,-0.6 2.5,-1.2 1.7,-0.6 2.7,-1.2 4.2,-1.8 2.1,-0.6 4.7,-1.8 6.8,-2.4 2.6,-1.2 4.7,-1.9 7.3,-2.5 1.7,-0.1 3.2,-0.7 4.7,-1.3 0.6,0 1.7,-0.1 2.7,-0.7 4.8,-0.7 10,-2 15.4,-2.3 h 0.9 l 3.8,-0.2 c 4.2,-0.7 8.5,-1 12.7,-1.2 1.6,0.5 2.6,0.5 4.3,0.4 2.6,0.4 5.3,0.3 8,0.7 2.1,-0.1 4.7,-0.3 7.5,0.1 2,0.5 4.2,0.9 6.3,1.3 3.8,0.4 7,0.8 10.8,1.6 2.2,0.5 3.7,0.4 5.9,0.8 2.1,0.5 3.7,1.4 5.9,1.9 5.9,1.8 12.4,3.6 18.9,5.5 2.1,0.9 4.3,1.4 6.4,1.8 2.2,0.9 4.3,1.9 6.6,2.9 2.1,0.9 4.3,1.4 6.4,2.3 8.2,3.3 16.3,7.2 24.5,11.6 8.7,4.4 17,9.3 25.7,14.7 2.7,1.5 5.5,3.5 8.2,5 5.5,4 11,8 17,11.9 2.8,2 6.1,4.5 8.9,7 5.4,4 10.4,8.1 15.4,12.1 3.4,2.5 6.1,5 9.4,7.5 1.7,2 4,3.5 5.6,5.1 2.2,2 3.9,4 6.1,5.5 6.2,6.1 12.2,11.6 18.4,17.8 1.7,2 3.9,4 5.6,5.5 1.6,2.1 3.3,3.6 4.5,5.7 3.9,3.5 7.2,7.6 11.1,11.7 2.3,2.5 4.6,5.1 6.8,7.6 1.7,2.1 3.9,4.6 5.7,6.7 2.2,3 5.1,6.6 7.8,9.7 1.8,2 3.4,4.1 5.1,6.7 2.9,3.5 5.7,7.7 8.5,11.2 1.8,2.6 3.5,4.7 5.2,7.2 1.1,1.1 1.7,2.1 2.3,3.1 5.1,7.2 10.3,14.4 14.9,21.7 l 1,1.5 c 0.6,1.6 1.8,2.6 2.4,4.1 3.4,5.2 6.8,10.3 9.8,15.5 1.6,2.6 2.8,5.2 4,7.8 1.8,2.6 2.9,4.7 4.6,7.2 1.2,2.6 2.4,4.7 3.5,6.8 3.6,6.2 6.5,11.9 9.4,18.1 0.6,1.1 1.2,2.1 1.8,3.1 l 0.6,1.1 c 3.5,7.8 7,15.6 10.6,22.9 0.6,1.5 1.2,3.1 1.8,4.1 1.2,3.2 2.4,5.8 3.6,8.9 1.2,3.7 3,7.3 4.7,11.5 1.3,3.1 2,5.7 3.2,8.9 1.2,3.6 2.4,7.3 3.7,10.4 0.6,2.6 1.8,4.7 2.4,6.8 1.3,4.2 2.5,7.9 3.3,12.1 1.7,4.2 3,8.3 4.3,13.1 0.1,1.6 0.7,3.1 1.3,4.7 0.6,3.1 1.3,6.3 2,9.5 1.4,6.8 3.3,13.6 4.7,20.5 0.1,2.1 0.7,3.7 1.4,5.8 0.7,4.2 0.9,8.4 1.6,12.6 0.7,3.2 0.8,6.4 1.5,9.5 1,9.6 2,19.1 2.5,28.6"
           style="fill:#7c7cd6;fill-opacity:1;fill-rule:nonzero;stroke:none"
           id="path1168"
           inkscape:connector-curvature="0" />
      </g>
      <path
         d="m -15.513065,17.4231 c -5.34106,2.755194 -9.45092,0.137583 -9.18281,-5.834946 0.26459,-5.9725266 4.80837,-13.0421936 10.14589,-15.7973876 5.3410604,-2.755194 9.4579804,-0.148167 9.1898604,5.824361 -0.26458,5.972527 -4.8118804,13.0527766 -10.1529404,15.8079726"
         style="fill:#eaa211;fill-opacity:1;fill-rule:nonzero;stroke:none;stroke-width:0.03527778"
         id="path1170"
         inkscape:connector-curvature="0" />
      <g
         id="g1172"
         transform="matrix(0.03589972,0,0,-0.03589972,-519.55489,456.90307)">
        <path
           d="m 16300,11212 -2031.8,1275.4 -102.5,-147.8 2041.2,-1266.1 c 2.3,2.5 4.6,5.1 6.8,7.7 1.7,2 4,4.6 5.7,6.6 2.3,3.1 5.1,6.7 7.9,9.8 1.7,2 3.4,4.1 5.1,6.7 2.8,3.6 5.7,7.7 8.5,11.3 1.8,2.6 3.5,4.6 5.2,7.2 1.1,1 1.7,2.1 2.3,3.1 5.1,7.2 10.3,14.5 14.9,21.7 l 1.1,1.6 c 0.6,1.5 1.8,2.6 2.4,4.1 3.4,5.2 6.9,10.4 9.8,15.6 1.7,2.6 2.9,5.2 4,7.8 1.8,2.6 3,4.6 4.7,7.2 1.1,2.6 2.3,4.7 3.5,6.8 3.5,6.2 6.5,12 9.4,18.2 0.6,1.1 1.2,2.1 1.8,3.1"
           style="fill:#babad6;fill-opacity:1;fill-rule:nonzero;stroke:none"
           id="path1174"
           inkscape:connector-curvature="0" />
      </g>
      <g
         id="g1176"
         transform="matrix(0.03734999,0,0,-0.03734999,-519.55489,456.90307)">
        <path
           d="m 15962.9,10363.3 c 0,0 185.7,45.1 118.7,208.3 l 218.4,-285.6 -337.1,77.3"
           style="fill:#60587f;fill-opacity:1;fill-rule:nonzero;stroke:none"
           id="path1178"
           inkscape:connector-curvature="0" />
      </g>
      <path
         d="m -14.687565,-2.8369276 c -0.0353,0.22225 -0.0706,0.4445 -0.11289,0.670277 -0.0494,0.246945 -0.10583,0.493889 -0.1658,0.744361 -0.0423,0.169334 -0.0776,0.338667 -0.127,0.50800001 -0.0423,0.15875 -0.0917,0.3175 -0.13759,0.47625 -0.067,0.22225 -0.13758,0.4445 -0.21166,0.663223 -0.0459,0.127 -0.0917,0.254 -0.13759,0.384527 -0.0917,0.246945 -0.18697,0.49388899 -0.28928,0.74083399 -0.0423,0.102305 -0.0811,0.201083 -0.127,0.303389 -0.14463,0.342194 -0.29986,0.680861 -0.46566,1.016 -0.0177,0.0388 -0.0388,0.07761 -0.06,0.116416 -0.14817,0.296334 -0.30692,0.596195 -0.4692,0.889001 -0.0529,0.09172 -0.10583,0.183444 -0.15875,0.278694 -0.15875,0.275166 -0.32455,0.550333 -0.49742,0.821973 -0.0353,0.05292 -0.067,0.10936 -0.0988,0.162277 -0.20461,0.3175 -0.41981,0.627943 -0.63853,0.93486 -0.0635,0.0882 -0.13053,0.17639 -0.19756,0.264583 -0.16227,0.218723 -0.32808,0.433917 -0.49741,0.649113 -0.0917,0.116417 -0.18345,0.229304 -0.2787,0.342194 -0.14816,0.176389 -0.29986,0.352776 -0.45155,0.52211 -0.127,0.14464 -0.254,0.289279 -0.38453,0.426863 -0.12347,0.134053 -0.25047,0.261053 -0.37747,0.391583 -0.21873,0.21872 -0.43745,0.430387 -0.66323,0.638527 -0.13758,0.127 -0.27516,0.257527 -0.41627,0.381 -0.10936,0.09525 -0.21873,0.186973 -0.33161,0.282223 -0.18345,0.148167 -0.36689,0.2963326 -0.55387,0.4374436 -0.11288,0.08467 -0.22225,0.169333 -0.33513,0.250473 -0.20109,0.148166 -0.4057,0.28222 -0.61031,0.416277 -0.0988,0.06703 -0.19756,0.134056 -0.29633,0.194026 -0.30692,0.1905 -0.61384,0.36689 -0.92428,0.529167 -0.29986,0.155223 -0.59267,0.28575 -0.88195,0.405696 -0.0776,0.03175 -0.15522,0.0635 -0.2293,0.09172 -0.15875,0.0635 -0.3175,0.11289 -0.47272,0.165806 -0.22931,0.07408 -0.45509,0.14111 -0.67734,0.197557 -0.14111,0.03528 -0.28222,0.07055 -0.42333,0.09525 -0.13053,0.02468 -0.26106,0.04586 -0.38806,0.0635 -0.16933,0.02468 -0.33513,0.04233 -0.50094,0.05292 -0.0952,0.0071 -0.1905,0.0141 -0.28575,0.01765 -0.20461,0.0035 -0.40569,-0.0035 -0.60325,-0.01765 -0.0459,-0.0035 -0.0917,-0.0035 -0.13758,-0.0071 -0.23636,-0.02822 -0.46567,-0.06703 -0.69145,-0.123473 -0.0529,-0.01058 -0.10936,-0.02822 -0.16228,-0.04586 -0.17638,-0.04939 -0.34572,-0.105834 -0.51152,-0.172861 -0.0494,-0.02117 -0.10584,-0.03881 -0.15523,-0.0635 -0.20813,-0.09525 -0.41275,-0.197556 -0.60325,-0.321029 l 9.18987,5.824363 0.0494,0.03175 c 0.14817,0.09525 0.30339,0.179916 0.46214,0.254 l 0.0917,0.0388 c 0.0494,0.02117 0.1023,0.04233 0.15522,0.0635 0.0811,0.03175 0.15875,0.06703 0.24341,0.09878 0.0847,0.02822 0.17639,0.04939 0.26812,0.07408 0.0529,0.0141 0.10583,0.03175 0.16227,0.04586 l 0.0917,0.02468 c 0.18344,0.04233 0.37041,0.07408 0.56444,0.09525 h 0.0353 c 0.0459,0.0071 0.0917,0.0035 0.13758,0.0071 0.14817,0.0141 0.29633,0.02469 0.44803,0.02469 0.0529,0 0.10583,-0.0071 0.15522,-0.0071 0.0952,-0.0035 0.1905,-0.0071 0.28575,-0.0141 0.0882,-0.0071 0.17286,-0.0035 0.26458,-0.0141 0.0776,-0.0071 0.15875,-0.02822 0.23637,-0.03881 0.13052,-0.01765 0.25752,-0.0388 0.38805,-0.0635 0.0706,-0.0141 0.13758,-0.02117 0.21167,-0.03528 0.067,-0.0141 0.14111,-0.04586 0.21166,-0.0635 0.22225,-0.05292 0.44803,-0.119944 0.67381,-0.197556 0.0811,-0.02469 0.15875,-0.0388 0.23989,-0.06703 0.0776,-0.02822 0.15875,-0.06703 0.23636,-0.09525 0.0741,-0.03175 0.15169,-0.05997 0.22578,-0.09172 0.2928,-0.119944 0.58561,-0.254 0.88547,-0.405694 0.31044,-0.162277 0.61736,-0.338667 0.92428,-0.529167 0.0988,-0.05997 0.19755,-0.130527 0.29633,-0.194027 0.20461,-0.134056 0.40922,-0.271639 0.61031,-0.416279 0.11289,-0.08114 0.22225,-0.165804 0.33514,-0.254 0.18697,-0.14111 0.37041,-0.28575 0.55386,-0.437444 0.10936,-0.09172 0.22225,-0.183443 0.33161,-0.282223 0.067,-0.05997 0.13758,-0.112887 0.20814,-0.17286 0.0705,-0.06703 0.13758,-0.14111 0.21166,-0.20461 0.22225,-0.20814 0.44098,-0.419807 0.65617,-0.642057 0.0706,-0.06703 0.14464,-0.130527 0.21167,-0.201083 0.0564,-0.05997 0.10936,-0.127 0.1658,-0.186973 0.13406,-0.14111 0.26106,-0.282221 0.38806,-0.42686 0.0847,-0.09525 0.17286,-0.183444 0.254,-0.282223 0.067,-0.07761 0.13053,-0.162277 0.19755,-0.239888 0.0952,-0.116416 0.1869804,-0.229306 0.2787004,-0.345723 0.0635,-0.07761 0.13053,-0.151693 0.1905,-0.232833 0.10583,-0.137583 0.20461,-0.275167 0.30691,-0.41275 0.067,-0.08819 0.13053,-0.17639 0.19756,-0.26811 0.0247,-0.03528 0.0529,-0.07056 0.0811,-0.109363 0.17992,-0.254 0.35278,-0.511527 0.52211,-0.772583 l 0.0353,-0.05292 c 0.0317,-0.05292 0.0635,-0.105833 0.0952,-0.155221 0.11994,-0.186973 0.23636,-0.373946 0.34925,-0.564446 0.0529,-0.08819 0.1023,-0.1763866 0.15169,-0.2645826 0.0529,-0.09172 0.10584,-0.183444 0.15522,-0.275167 0.0459,-0.08114 0.0952,-0.15875 0.13759,-0.239887 0.11641,-0.215196 0.22578,-0.433917 0.33514,-0.649113 0.0212,-0.0388 0.0423,-0.08114 0.06,-0.119943 l 0.0177,-0.03175 c 0.13405,-0.275167 0.26458,-0.550334 0.38453,-0.829027 0.0247,-0.04939 0.0423,-0.102307 0.0635,-0.151696 0.0459,-0.102304 0.0847,-0.204611 0.127,-0.303388 0.0564,-0.141112 0.11994,-0.278696 0.17286,-0.416279 0.0423,-0.10936 0.0776,-0.218721 0.11641,-0.328083 0.0459,-0.127 0.0917,-0.254 0.13759,-0.381 0.0247,-0.08114 0.0564,-0.15875 0.0847,-0.239888 0.0459,-0.141112 0.0811,-0.282223 0.12348,-0.423333 0.0494,-0.15875 0.0988,-0.3175 0.14111,-0.47625 0.0177,-0.05645 0.0353,-0.109363 0.0494,-0.165806 0.0317,-0.116417 0.0494,-0.229307 0.0776,-0.345723 0.06,-0.246944 0.11641,-0.493888 0.16227,-0.740834 0.0141,-0.07055 0.0353,-0.14111 0.0459,-0.208137 0.0282,-0.155223 0.0459,-0.310445 0.0705,-0.465667 0.0141,-0.112889 0.0353,-0.22225 0.0459,-0.331611 0.0459,-0.34925 0.0776,-0.694973 0.0917,-1.037167 0.0988,-2.22602799 -0.40922,-3.982861 -1.36172,-5.171722 -0.3175,-0.395111 -0.68439,-0.726722 -1.09714,-0.991306 l -9.1863304,-5.8278884 c 1.64042,1.0618614 2.58939,3.1961664 2.45533,6.1630274 -0.0141,0.342195 -0.0459,0.687917 -0.0882,1.037167 -0.0141,0.112889 -0.0353,0.22225 -0.0494,0.335139"
         style="fill:#f9bb41;fill-opacity:1;fill-rule:nonzero;stroke:none;stroke-width:0.03527778"
         id="path1180"
         inkscape:connector-curvature="0" />
      <path
         d="m -24.702925,11.598737 c -5.34106,2.755196 -9.45092,0.141113 -9.18281,-5.8349426 0.26459,-5.97252799 4.80836,-13.042195 10.14589,-15.7973894 5.34106,-2.755194 9.45797,-0.148167 9.18986,5.8243614 -0.26458,5.972528 -4.81189,13.052778 -10.15294,15.8079706"
         style="fill:#eaa211;fill-opacity:1;fill-rule:nonzero;stroke:none;stroke-width:0.03527778"
         id="path1182"
         inkscape:connector-curvature="0" />
      <path
         d="m -33.853985,-14.983066 c -0.0318,0.225777 -0.0705,0.448027 -0.11289,0.670277 -0.0494,0.246945 -0.10583,0.497417 -0.1658,0.744361 -0.0388,0.169334 -0.0776,0.342194 -0.12347,0.511528 -0.0459,0.15875 -0.0917,0.3175 -0.14111,0.47625 -0.067,0.218722 -0.13406,0.440972 -0.21167,0.663222 -0.0423,0.127 -0.0882,0.254 -0.13758,0.381 -0.0917,0.246944 -0.18698,0.493889 -0.28575,0.740833 -0.0423,0.102306 -0.0847,0.204611 -0.127,0.306917 -0.14817,0.338666 -0.29987,0.6773334 -0.46567,1.0124724 -0.0212,0.0388 -0.0423,0.07761 -0.06,0.116417 -0.1517,0.299861 -0.31045,0.596194 -0.47272,0.892527 -0.0529,0.09172 -0.10584,0.183445 -0.15875,0.275167 -0.15875,0.278694 -0.32456,0.553861 -0.49742,0.8255 -0.0318,0.05292 -0.0635,0.105833 -0.0988,0.15875 -0.20461,0.3175 -0.4198,0.631472 -0.63853,0.938389 -0.0635,0.08819 -0.13052,0.172861 -0.19402,0.261055 -0.16228,0.22225 -0.32809,0.437445 -0.50095,0.652639 -0.0917,0.112889 -0.18344,0.225778 -0.27869,0.338667 -0.14464,0.179917 -0.29634,0.352778 -0.44803,0.525639 -0.13053,0.144639 -0.25753,0.28575 -0.38806,0.426861 -0.12347,0.134055 -0.25047,0.261055 -0.37747,0.388055 -0.21519,0.22225 -0.43744,0.433917 -0.65969,0.642056 -0.13759,0.127 -0.27517,0.254 -0.41628,0.377472 -0.11289,0.09525 -0.22225,0.1905 -0.33514,0.282222 -0.17992,0.151695 -0.36689,0.296334 -0.55386,0.440973 -0.10936,0.08467 -0.22225,0.169333 -0.33514,0.250472 -0.20108,0.144639 -0.40569,0.282222 -0.61031,0.416278 -0.0988,0.0635 -0.19755,0.134055 -0.29633,0.194027 -0.30339,0.19050001 -0.6103,0.36688901 -0.92428,0.52916701 -0.29633,0.151695 -0.59266,0.28575 -0.88194,0.405695 -0.0776,0.03175 -0.1517,0.05997 -0.22931,0.09172 -0.15875,0.05997 -0.31397,0.109361 -0.47272,0.162278 -0.2293,0.07761 -0.45155,0.144638 -0.6738,0.197555 -0.14464,0.03528 -0.28575,0.07056 -0.42334,0.09878 -0.13053,0.02469 -0.26105,0.04586 -0.39158,0.0635 -0.16933,0.02469 -0.33514,0.04233 -0.50095,0.05292 -0.0953,0.0071 -0.1905,0.01058 -0.28222,0.01411 -0.20814,0.0035 -0.40922,0 -0.60678,-0.01764 -0.0423,-0.0035 -0.0917,-0.0035 -0.13405,-0.0071 -0.23989,-0.02469 -0.4692,-0.06703 -0.69145,-0.119945 -0.0564,-0.01411 -0.10936,-0.03175 -0.1658,-0.04586 -0.17286,-0.04939 -0.34572,-0.105833 -0.508,-0.172861 -0.0529,-0.02117 -0.10583,-0.04233 -0.15875,-0.0635 -0.20814,-0.09525 -0.40922,-0.201083 -0.60325,-0.324556 l 19.10644,12.14613759 0.0494,0.03175 c 0.14817,0.09172 0.30339,0.17639 0.46214,0.250473 l 0.0917,0.03881 c 0.0494,0.02469 0.10231,0.04233 0.15522,0.0635 0.0811,0.03175 0.15875,0.07055 0.24342,0.09878 0.0847,0.02822 0.17639,0.04939 0.26811,0.07408 0.0529,0.01765 0.10584,0.03528 0.16228,0.04586 l 0.0917,0.02469 c 0.18345,0.04233 0.37042,0.07408 0.56445,0.09525 h 0.0353 c 0.0459,0.0071 0.0917,0.0071 0.13759,0.01058 0.14816,0.01058 0.29633,0.02469 0.44803,0.02469 0.0529,0 0.10583,-0.0071 0.15522,-0.0071 0.0952,-0.0035 0.1905,-0.01058 0.28575,-0.01765 0.0882,-0.0035 0.17286,-0.0035 0.26458,-0.0141 0.0776,-0.0071 0.15875,-0.02822 0.23636,-0.0388 0.13053,-0.01765 0.25753,-0.03881 0.38806,-0.0635 0.0705,-0.0141 0.13758,-0.01765 0.21166,-0.03528 0.067,-0.0141 0.14112,-0.04233 0.21167,-0.05997 0.22225,-0.05645 0.44803,-0.123474 0.67381,-0.197557 0.0811,-0.02822 0.15875,-0.04233 0.23989,-0.07056 0.0776,-0.02822 0.15875,-0.0635 0.23636,-0.09525 0.0741,-0.02822 0.15169,-0.05997 0.22577,-0.09172 0.29281,-0.119946 0.58562,-0.250473 0.88548,-0.405696 0.31044,-0.162277 0.61736,-0.338667 0.92427,-0.529167 0.0988,-0.05997 0.19756,-0.127 0.29634,-0.194027 0.20461,-0.134056 0.40922,-0.26811 0.6103,-0.416276 0.11289,-0.08114 0.22225,-0.165807 0.33514,-0.250474 0.18697,-0.14111 0.37042,-0.2892756 0.55386,-0.4374426 0.10936,-0.09525 0.22225,-0.186973 0.33161,-0.282223 0.067,-0.05997 0.13759,-0.116417 0.20814,-0.17639 0.0706,-0.0635 0.13759,-0.137583 0.21167,-0.20461 0.22225,-0.20814 0.44097,-0.419807 0.65617,-0.638527 0.0705,-0.07056 0.14464,-0.134057 0.21166,-0.204613 0.0565,-0.05997 0.10936,-0.12347 0.16581,-0.183444 0.13405,-0.14111 0.26105,-0.28575 0.38805,-0.430389 0.0847,-0.09525 0.17287,-0.183444 0.254,-0.278694 0.067,-0.08114 0.13053,-0.162277 0.19756,-0.243417 0.0952,-0.112889 0.18697,-0.225776 0.27869,-0.342193 0.0635,-0.08114 0.13053,-0.155223 0.1905,-0.236363 0.10584,-0.134054 0.20462,-0.275167 0.30692,-0.41275 0.067,-0.08819 0.13053,-0.176387 0.19756,-0.264583 0.0247,-0.0388 0.0529,-0.07408 0.0811,-0.109361 0.17991,-0.254 0.35277,-0.511526 0.52211,-0.77611 l 0.0353,-0.05292 c 0.0317,-0.04939 0.0635,-0.102307 0.0952,-0.155224 0.11995,-0.186973 0.23637,-0.373943 0.34925,-0.560916 0.0529,-0.08819 0.10231,-0.179917 0.1517,-0.26811 0.0529,-0.09172 0.10583,-0.183447 0.15522,-0.275167 0.0459,-0.08114 0.0952,-0.15875 0.13758,-0.23989 0.11642,-0.215193 0.22578,-0.430389 0.33514,-0.649111 0.0212,-0.0388 0.0423,-0.07761 0.06,-0.119944 l 0.0176,-0.03175 c 0.13406,-0.275167 0.26459,-0.550334 0.38453,-0.829028 0.0247,-0.04939 0.0423,-0.09878 0.0635,-0.151695 0.0459,-0.102305 0.0847,-0.201083 0.127,-0.303388 0.0565,-0.141112 0.11995,-0.278695 0.17286,-0.41627799 0.0423,-0.109361 0.0776,-0.218722 0.11642,-0.328084 0.0459,-0.127 0.0917,-0.254 0.13758,-0.381 0.0247,-0.07761 0.0564,-0.15875 0.0847,-0.236361 0.0459,-0.141111 0.0811,-0.28575 0.12347,-0.426861 0.0494,-0.15875 0.0988,-0.3175 0.14111,-0.47625 0.0177,-0.05292 0.0353,-0.10936101 0.0494,-0.16580501 0.0317,-0.112889 0.0494,-0.229306 0.0776,-0.342195 0.06,-0.250472 0.11642,-0.497416 0.16228,-0.744361 0.0141,-0.06703 0.0353,-0.137583 0.0459,-0.208139 0.0282,-0.155222 0.0459,-0.310444 0.0706,-0.465666 0.0141,-0.109361 0.0353,-0.22225 0.0459,-0.331611 0.0459,-0.34925 0.0776,-0.694973 0.0917,-1.037167 0.0988,-2.2225 -0.40922,-3.982861 -1.36172,-5.168194 -0.3175,-0.395111 -0.68439,-0.7302504 -1.09714,-0.9948344 l -19.10292,-12.142539 c 1.64042,1.061861 2.58939,3.196167 2.45886,6.163028 -0.0176,0.342194 -0.0494,0.687916 -0.0917,1.037166 -0.0141,0.109361 -0.0318,0.22225 -0.0494,0.331611"
         style="fill:#f07554;fill-opacity:1;fill-rule:nonzero;stroke:none;stroke-width:0.03527778"
         id="path1184"
         inkscape:connector-curvature="0" />
      <path
         d="m -43.869345,-0.54387259 c -5.33752,2.75166699 -9.44739,0.137583 -9.1828,-5.83494401 0.26811,-5.9725284 4.80836,-13.0457224 10.14941,-15.7973884 5.33753,-2.755195 9.45445,-0.151695 9.18986,5.824361 -0.26811,5.972527 -4.81541,13.0527774 -10.15647,15.80797141"
         style="fill:#d8563d;fill-opacity:1;fill-rule:nonzero;stroke:none;stroke-width:0.03527778"
         id="path1186"
         inkscape:connector-curvature="0" />
      <g
         id="g1188"
         transform="matrix(0.03853533,0,0,-0.03853533,-519.55489,456.90307)">
        <path
           d="m 16171.9,10744.9 -18.6,-11.1 -99.4,-17.3 c 0,0 -92.1,-5.4 -96.5,0 -4.5,5.4 -102.4,48.5 -106.9,50 -1.1,0.3 -5.9,2.9 -12.2,6.4 5.7,21.9 24.5,41.6 55.9,55.1 70.1,30 176.7,17 238,-29.1 10.2,-7.7 18.5,-15.8 24.9,-24.2 7.6,-9.8 12.4,-19.8 14.8,-29.8 z m -460.9,12.8 v 0 c 4,-36.9 27.7,-75 72.1,-108.4 105.4,-79.3 287.2,-102.6 409.7,-53.4 2.2,0.8 4.2,1.7 6.2,2.5 62,26.6 95.9,67.3 100.4,111.4 l 0.6,0.3 v 111.3 l -32.9,-19.6 c -10.7,13 -24,25.7 -40,37.7 -107.1,80.7 -293.3,103.5 -416,51 -29.8,-12.8 -53.1,-28.9 -69.7,-47.1 l -30.4,27 v -89.9 c -0.9,-7.5 -0.8,-15.1 0,-22.8 v 0"
           style="fill:#5454ae;fill-opacity:1;fill-rule:nonzero;stroke:none"
           id="path1190"
           inkscape:connector-curvature="0" />
      </g>
      <g
         id="g1192"
         transform="matrix(0.03827956,0,0,-0.03827956,-519.55489,456.90307)">
        <path
           d="m 16291.5,10808.7 c -1.9,6.8 -5,13.4 -9,20 l -0.4,0.5 c -4.1,6.5 -9.4,12.8 -15.7,18.9 l -0.3,0.3 c -6.5,6.1 -14,12.1 -22.8,17.7 -8.6,5.5 -18,10.4 -28,14.7 l -0.7,0.3 c -9.8,4.3 -20.1,7.9 -30.9,11 l -0.6,0.1 c -21.6,6.1 -44.7,9.7 -67.9,10.8 h -1.6 c -11.4,0.5 -22.7,0.4 -33.9,-0.3 l -0.5,-0.1 c -11.4,-0.8 -22.8,-2.2 -33.8,-4.3 l -0.5,-0.1 c -11.1,-2.1 -21.7,-4.8 -32,-8.2 h -0.1 c -10.3,-3.5 -20.1,-7.6 -29.4,-12.4 -8.9,-4.7 -16.7,-9.8 -23.6,-15.2 l -0.6,-0.5 c -6.6,-5.5 -12.3,-11.2 -17,-17.2 l -0.2,-0.3 c -3.9,-5 -6.6,-10.3 -8.9,-15.6 -0.8,-1.8 -1.7,-3.5 -2.3,-5.3 -2.1,-5.9 -3.6,-12 -3.9,-18.1 l 5.8,123.1 c 0.3,6.1 1.8,12.1 3.9,18 0.7,1.8 1.5,3.5 2.3,5.3 1,2.3 1.7,4.6 3,6.9 1.6,2.8 3.6,5.7 5.7,8.4 l 0.3,0.3 0.1,0.3 c 1.5,1.9 3,3.8 4.7,5.6 1.5,1.8 3.2,3.5 5,5.2 1.6,1.5 3.3,3.1 5.1,4.6 l 2.2,1.8 0.7,0.5 2.2,1.7 c 1.6,1.3 3.3,2.5 5,3.7 1.7,1.2 3.4,2.4 5.3,3.5 1.7,1.1 3.5,2.1 5.2,3.1 1.9,1.1 3.6,2.1 5.6,3.1 l 0.2,0.1 c 1.8,1 3.5,1.8 5.4,2.7 1.8,0.9 3.8,1.8 5.7,2.6 1.9,0.9 3.9,1.7 5.9,2.5 1.9,0.8 4,1.6 6,2.3 2,0.8 4.1,1.5 6.3,2.2 l 0.1,0.1 v 0 c 2.1,0.7 4.2,1.3 6.2,2 2.2,0.6 4.4,1.3 6.7,1.9 2.3,0.6 4.6,1.2 6.8,1.7 2.3,0.6 4.7,1.1 7,1.6 1.8,0.4 3.6,0.7 5.4,1.1 l 0.5,0.1 1.2,0.2 c 2.3,0.4 4.6,0.8 6.9,1.2 2.3,0.3 4.7,0.7 7,1 2.2,0.3 4.5,0.6 6.7,0.8 2.3,0.2 4.5,0.5 6.8,0.7 1.8,0.1 3.5,0.2 5.3,0.4 h 0.4 l 1.1,0.1 c 2.3,0.1 4.7,0.2 7,0.3 2.5,0.1 5,0.2 7.5,0.2 3,0.1 5.9,0.1 8.8,0.1 3.2,-0.1 6.3,-0.2 9.6,-0.3 l 1.5,-0.1 2.1,-0.1 c 6,-0.3 12,-0.8 18.1,-1.4 4.7,-0.6 9.5,-1.2 14.2,-1.9 3.2,-0.5 6.4,-1.1 9.4,-1.7 2.7,-0.5 5.3,-1 7.8,-1.6 2.6,-0.5 5.1,-1.1 7.6,-1.7 2.5,-0.6 4.9,-1.3 7.4,-1.9 l 1.3,-0.4 0.7,-0.2 c 1.7,-0.5 3.6,-1 5.3,-1.6 2.5,-0.7 5,-1.5 7.4,-2.4 2.5,-0.8 5,-1.7 7.4,-2.6 2.5,-0.9 4.8,-1.8 7.2,-2.8 1.2,-0.5 2.3,-1 3.5,-1.5 l 0.8,-0.4 c 0.8,-0.3 1.8,-0.7 2.6,-1.1 2.2,-1 4.3,-2 6.5,-3.1 2.1,-1 4.2,-2 6.2,-3.1 1.9,-1.1 3.9,-2.2 5.8,-3.3 1.9,-1.1 3.8,-2.2 5.5,-3.3 l 1.3,-0.8 c 1.4,-0.9 2.7,-1.7 4,-2.6 1.7,-1.2 3.3,-2.3 4.9,-3.5 1.5,-1.1 3.1,-2.3 4.6,-3.5 1.6,-1.2 2.9,-2.4 4.4,-3.6 1.4,-1.2 2.8,-2.5 4.2,-3.7 l 0.7,-0.8 0.3,-0.3 c 1,-0.9 1.9,-1.8 2.8,-2.8 1.4,-1.3 2.6,-2.7 3.8,-4.1 1.3,-1.3 2.4,-2.7 3.6,-4.1 1.2,-1.6 2.3,-3.1 3.4,-4.7 0.7,-1 1.5,-2.1 2.1,-3.2 l 0.4,-0.5 0.7,-1.1 c 1,-1.8 2.1,-3.6 3,-5.4 1.1,-2 2,-4 2.8,-6.1 1,-2.4 1.8,-4.8 2.5,-7.2 v -0.1 l 0.1,-0.4 c 0.8,-2.9 1.5,-5.8 1.9,-8.7 0.5,-3.9 0.7,-7.7 0.5,-11.6 v 0 l -5.8,-123 c 0.4,6.7 -0.5,13.6 -2.4,20.3 l -0.1,0.3"
           style="fill:#5454ae;fill-opacity:1;fill-rule:nonzero;stroke:none"
           id="path1194"
           inkscape:connector-curvature="0" />
      </g>
      <g
         id="g1196"
         transform="matrix(0.03888599,0,0,-0.03888599,-519.55489,456.90307)">
        <path
           d="m 15103.6,10941.3 c 83.7,43.8 217.9,37.8 298.1,-13.4 l 180.2,-114.9 112.9,-72.1 c 3.8,-19.3 17.1,-38.8 40.1,-56.1 30.3,-22.9 72,-37.5 114.7,-42.7 l 112.9,-72.1 257.3,-164.2 c 80.2,-51.2 76.9,-128.8 -6.7,-172.6 -83.8,-43.9 -217.9,-38 -298.1,13.2 l -229,146.1 -360.3,229.9 -228.8,146.1 c -80.1,51.2 -77.2,128.9 6.7,172.8"
           style="fill:#7c7cd6;fill-opacity:1;fill-rule:nonzero;stroke:none"
           id="path1198"
           inkscape:connector-curvature="0" />
      </g>
      <g
         id="g1200"
         transform="matrix(0.03859918,0,0,-0.03859918,-519.55489,456.90307)">
        <path
           d="m 15811.5,10820.7 c -6.4,31.7 12.9,62.6 56.4,81.2 70,30 176.4,17.1 237.5,-29 10.3,-7.7 18.6,-15.8 25,-24.1 32.1,-41.6 17.4,-88.7 -41,-113.6 -1.2,-0.5 -2.3,-1 -3.5,-1.5 -34.4,-13.8 -77,-17.6 -118.5,-12.5 -42.9,5.2 -85,20 -115.5,43 -23.2,17.5 -36.6,37.1 -40.4,56.5 z m -54.5,-97.1 c 82.8,-62.3 213,-90.1 324.2,-75 30.2,4 58.9,11.2 84.8,21.7 2.2,0.8 4.2,1.6 6.2,2.5 102.1,43.7 127.8,125.8 71.7,198.5 -11.3,14.6 -25.8,28.8 -43.6,42.2 -106.9,80.5 -292.8,103.3 -415.3,50.8 -42.4,-18.1 -71.7,-42.9 -87.3,-71 -29.4,-52.8 -10.6,-117 59.3,-169.7"
           style="fill:#7c7cd6;fill-opacity:1;fill-rule:nonzero;stroke:none"
           id="path1202"
           inkscape:connector-curvature="0" />
      </g>
      <g
         id="g1204"
         transform="matrix(0.03883342,0,0,-0.03883342,-519.55489,456.90307)">
        <path
           d="m 15059.2,10873 c -0.2,-4.2 0,-8.5 0.6,-12.7 0.4,-3 1,-5.9 1.7,-8.8 l 0.6,-2.4 c 1,-3.6 2.3,-7.1 3.9,-10.6 l 1,-2.1 c 1.5,-3.4 3.3,-6.8 5.3,-10.1 l 0.8,-1.1 c 2.2,-3.4 4.7,-6.8 7.4,-10.2 l 0.8,-1 c 2.8,-3.3 6,-6.7 9.4,-9.9 l 0.7,-0.8 c 3.6,-3.4 7.5,-6.7 11.5,-10 l 0.9,-0.6 c 4.2,-3.2 8.8,-6.5 13.6,-9.6 l 229.2,-146.2 590,-376.6 c 9.9,-6.3 20.7,-11.9 32.1,-16.9 l 0.9,-0.4 c 11.3,-4.8 23.2,-9 35.4,-12.4 l 0.7,-0.2 c 12.4,-3.5 25.3,-6.3 38.4,-8.4 h 0.4 c 12.9,-2 26,-3.3 39.2,-3.9 l 2,-0.1 c 13.1,-0.5 26.2,-0.4 39.1,0.5 h 0.4 c 13.2,0.9 26.3,2.5 38.9,4.9 l 0.5,0.1 c 12.8,2.4 25,5.5 36.7,9.4 l 0.3,0.1 c 11.8,3.9 23.1,8.7 33.5,14.1 10.3,5.4 19.3,11.3 27.1,17.6 l 0.7,0.5 c 7.8,6.3 14.3,12.9 19.6,19.8 l 0.2,0.3 c 4.4,5.8 7.5,11.9 10.2,18 0.9,2 2,4 2.6,6.1 2.5,6.8 4.2,13.8 4.5,20.8 l -4.5,-94.5 c -0.3,-7.1 -2,-14 -4.4,-20.9 -0.7,-2 -1.7,-4 -2.6,-6.1 -1.2,-2.6 -2,-5.4 -3.6,-8 -1.9,-3.3 -4.1,-6.5 -6.4,-9.7 l -0.3,-0.3 -0.2,-0.2 c -1.7,-2.3 -3.5,-4.5 -5.4,-6.7 -1.9,-2 -3.8,-3.9 -5.9,-5.9 -1.8,-1.8 -3.8,-3.5 -5.8,-5.3 l -2.4,-1.9 -0.7,-0.6 c -1,-0.7 -1.8,-1.4 -2.7,-2.1 -1.9,-1.4 -3.8,-2.8 -5.8,-4.2 -1.9,-1.4 -3.9,-2.7 -6,-4 -1.9,-1.2 -3.9,-2.4 -6,-3.6 -2,-1.2 -4.1,-2.3 -6.3,-3.4 l -0.3,-0.2 c -2,-1.1 -4,-2.1 -6,-3 -2.2,-1.1 -4.4,-2.1 -6.6,-3.1 -2.1,-0.9 -4.4,-1.9 -6.7,-2.8 -2.2,-0.9 -4.5,-1.8 -6.8,-2.6 -2.4,-0.9 -4.7,-1.7 -7.2,-2.5 l -0.3,-0.2 h -0.2 c -2.2,-0.8 -4.5,-1.5 -6.7,-2.2 -2.6,-0.7 -5.1,-1.5 -7.8,-2.2 -2.5,-0.7 -5.1,-1.3 -7.8,-2 -2.6,-0.6 -5.2,-1.2 -8,-1.8 -2.1,-0.4 -4.3,-0.8 -6.4,-1.3 h -0.6 l -1,-0.3 c -2.8,-0.5 -5.4,-0.9 -8.1,-1.3 -2.7,-0.5 -5.4,-0.8 -8,-1.2 -2.7,-0.3 -5.2,-0.7 -7.8,-0.9 -2.7,-0.3 -5.3,-0.6 -7.9,-0.8 -2,-0.2 -4,-0.3 -6,-0.5 h -0.5 l -1.4,-0.1 c -2.6,-0.2 -5.2,-0.3 -7.9,-0.4 -3,-0.1 -5.9,-0.2 -8.8,-0.3 -3.3,0 -6.8,0 -10.1,0 -3.7,0.1 -7.2,0.2 -10.9,0.4 h -2 l -2.4,0.1 c -7,0.4 -13.9,0.9 -20.9,1.7 -5.3,0.6 -10.6,1.3 -15.9,2.1 l -0.4,0.1 h -0.2 c -3.7,0.6 -7.3,1.2 -10.8,1.9 -3.1,0.6 -6.1,1.2 -9,1.8 -2.9,0.7 -5.9,1.3 -8.8,2 -2.8,0.7 -5.6,1.5 -8.4,2.2 l -1.3,0.4 -0.5,0.2 c -2.3,0.6 -4.5,1.2 -6.7,1.9 -2.9,0.9 -5.7,1.8 -8.4,2.7 -2.9,1 -5.7,2 -8.5,3 -2.8,1.1 -5.5,2.2 -8.1,3.3 -1.3,0.5 -2.6,1 -3.8,1.6 l -0.9,0.4 c -1.1,0.4 -2.1,0.9 -3.2,1.4 -2.6,1.1 -5,2.2 -7.5,3.5 -2.3,1.1 -4.7,2.3 -7,3.6 -2.2,1.2 -4.4,2.4 -6.6,3.6 -2.1,1.3 -4.3,2.5 -6.3,3.8 l -1.4,0.9 -192.1,122.6 -627.2,400.3 c -1.5,0.9 -3,1.9 -4.4,2.9 -2,1.3 -3.8,2.6 -5.6,4 -1.3,0.9 -2.4,1.8 -3.6,2.7 l -0.8,0.6 -0.9,0.7 c -1.7,1.4 -3.4,2.7 -5,4.1 -1.6,1.4 -3.3,2.9 -4.8,4.3 l -0.8,0.9 -0.8,0.7 c -1,0.9 -2,1.9 -2.9,2.8 -1.5,1.6 -3,3.1 -4.3,4.7 -0.8,0.8 -1.4,1.7 -2.1,2.5 l -0.8,0.9 -1.2,1.4 c -1.4,1.8 -2.8,3.6 -3.9,5.3 -0.9,1.2 -1.6,2.4 -2.4,3.6 l -0.7,1.1 -0.7,0.9 c -1.2,2.1 -2.3,4.1 -3.4,6.2 -0.5,1 -0.9,1.9 -1.4,2.9 l -0.9,2.1 -1,2.1 c -1.1,2.7 -2.1,5.5 -2.9,8.3 v 0.2 l -0.5,2.4 c -0.7,2.7 -1.4,5.4 -1.8,8.1 v 0.7 c -0.5,4.3 -0.8,8.5 -0.6,12.7 l 4.5,94.6"
           style="fill:#5454ae;fill-opacity:1;fill-rule:nonzero;stroke:none"
           id="path1206"
           inkscape:connector-curvature="0" />
      </g>
      <g
         id="g1208"
         transform="matrix(0.03622816,0,0,-0.03622816,-519.55489,456.90307)">
        <path
           d="m 16300,11262.3 h -0.1 l 0.1,1.8 v -1.8"
           style="fill:#5454ae;fill-opacity:1;fill-rule:nonzero;stroke:none"
           id="path1210"
           inkscape:connector-curvature="0" />
      </g>
      <path
         d="m -66.567064,145.78517 c -15.543387,10.91741 15.610419,27.70187 29.351109,18.41112 13.7407,-9.29111 -18.40794,-26.09886 -29.351109,-18.41112"
         style="fill:#cacae0;fill-opacity:1;fill-rule:nonzero;stroke:none;stroke-width:0.03527778"
         id="path1212"
         inkscape:connector-curvature="0" />
      <path
         d="m -61.656398,148.54883 c 0,0 7.496533,-2.56434 8.456083,0.024 0.95956,2.58868 -6.956776,5.77179 -8.681859,5.53825 -1.725084,-0.23353 -2.659944,-0.76552 -2.264834,-2.37701 0.39511,-1.61114 2.102557,-3.77366 2.102557,-3.77366 l 0.388053,0.58843"
         style="fill:#000000;fill-opacity:1;fill-rule:nonzero;stroke:none;stroke-width:0.03527778"
         id="path1214"
         inkscape:connector-curvature="0" />
      <path
         d="m -52.995705,129.90558 c 0,0 0.45156,-3.66712 4.36739,-3.50061 3.91231,0.16651 3.48545,5.58835 2.23308,15.40757 -1.25236,9.81921 -1.1818,14.26739 -2.26836,16.41792 -0.75141,1.49366 -3.55952,1.10243 -3.70416,-0.5722 -0.14464,-1.67464 -0.85373,-25.79688 -0.62795,-27.75268"
         style="fill:#422b9f;fill-opacity:1;fill-rule:nonzero;stroke:none;stroke-width:0.03527778"
         id="path1216"
         inkscape:connector-curvature="0" />
      <path
         d="m -52.360705,156.2856 c 0,0 2.38831,1.57727 4.3815,-0.92287 0,0 2.02847,0.74436 4.40972,1.30034 2.02142,0.47166 4.41678,0.63712 4.74134,1.88842 0.70555,2.72627 -11.31006,3.25296 -12.78467,2.83668 -1.47814,-0.41592 -0.74789,-5.10257 -0.74789,-5.10257"
         style="fill:#000000;fill-opacity:1;fill-rule:nonzero;stroke:none;stroke-width:0.03527778"
         id="path1218"
         inkscape:connector-curvature="0" />
      <path
         d="m -55.309925,107.3278 c 0,0 2.31422,18.65525 2.19428,21.93079 -0.12347,3.27554 1.33703,6.64527 5.66914,5.25533 2.69169,-0.86396 2.12372,-4.93148 2.40594,-9.10696 0.28575,-4.17512 1.38995,-20.08505 1.38995,-20.08505 0,0 -10.06828,-7.747706 -11.65931,2.00589"
         style="fill:#422b9f;fill-opacity:1;fill-rule:nonzero;stroke:none;stroke-width:0.03527778"
         id="path1220"
         inkscape:connector-curvature="0" />
      <path
         d="m -64.386898,122.79076 c 0,0 0.451557,-3.66712 4.36739,-3.50061 3.912303,0.16651 3.485443,5.58835 2.233083,15.40792 -1.25236,9.81921 -1.18181,14.26739 -2.264833,16.41757 -0.754943,1.49401 -3.563056,1.10243 -3.707693,-0.57221 -0.14464,-1.67428 -0.853723,-25.79652 -0.627947,-27.75267"
         style="fill:#422b9f;fill-opacity:1;fill-rule:nonzero;stroke:none;stroke-width:0.03527778"
         id="path1222"
         inkscape:connector-curvature="0" />
      <path
         d="m -66.701118,100.21298 c 0,0 2.31422,18.65524 2.194277,21.93078 -0.123473,3.27555 1.337027,6.64528 5.669136,5.25534 2.69522,-0.86396 2.12372,-4.93113 2.40947,-9.10661 0.28575,-4.17548 1.38642,-20.086806 1.38642,-20.086806 0,0 -10.068276,-7.747 -11.659303,2.007296"
         style="fill:#422b9f;fill-opacity:1;fill-rule:nonzero;stroke:none;stroke-width:0.03527778"
         id="path1224"
         inkscape:connector-curvature="0" />
      <path
         d="m -59.973648,68.12432 v 4.441471 c 2.000253,2.27189 4.653143,1.527529 5.789083,1.058333 V 68.12432 h -5.789083"
         style="fill:#fd5c54;fill-opacity:1;fill-rule:nonzero;stroke:none;stroke-width:0.03527778"
         id="path1226"
         inkscape:connector-curvature="0" />
      <path
         d="m -53.902345,58.687514 c -3.48544,0.324556 -6.028969,3.626556 -5.683246,7.376583 0.349246,3.750027 3.460746,6.529917 6.946196,6.205361 3.48897,-0.324554 6.0325,-3.630084 5.68325,-7.380111 -0.34925,-3.750027 -3.46075,-6.526387 -6.9462,-6.201833"
         style="fill:#fd5c54;fill-opacity:1;fill-rule:nonzero;stroke:none;stroke-width:0.03527778"
         id="path1228"
         inkscape:connector-curvature="0" />
      <path
         d="m -51.013095,63.545264 c 0,0 3.13973,2.2225 5.18231,1.090083 1.63689,-0.910166 2.76225,-3.704166 2.01083,-6.09247 -0.81844,-2.6035 -0.60678,1.770943 -3.37961,-1.09714 -7.62,-7.877527 -15.352886,0.07408 -14.76022,6.87211 0.352777,4.028723 4.25097,5.979584 8.12447,4.624917 1.30175,-0.455083 3.33728,-2.480027 2.82222,-5.3975"
         style="fill:#422b9f;fill-opacity:1;fill-rule:nonzero;stroke:none;stroke-width:0.03527778"
         id="path1230"
         inkscape:connector-curvature="0" />
      <path
         d="m -63.303868,73.320737 c 0,0 -2.62114,-0.71614 -5.228167,3.891137 -2.6035,4.60375 -5.9055,15.78681 -4.49086,18.72545 1.414637,2.93511 6.212414,2.96686 7.852831,-2.65289 1.63689,-5.61975 4.998863,-14.30161 4.22275,-17.000364 -0.77611,-2.69875 -2.356554,-2.963333 -2.356554,-2.963333"
         style="fill:#6e59d3;fill-opacity:1;fill-rule:nonzero;stroke:none;stroke-width:0.03527778"
         id="path1232"
         inkscape:connector-curvature="0" />
      <path
         d="m -67.957008,85.272844 c 0.455084,11.1125 0.29986,17.391946 1.044223,18.549056 0.747887,1.15852 7.70819,10.58086 23.50911,3.46921 0,0 -0.22225,-5.2966 -0.73731,-10.838736 -0.60325,-6.51933 -1.89794,-13.76539 -1.97555,-15.73389 -0.14464,-3.64066 -3.1115,-5.79261 -3.1115,-5.79261 -1.143,-0.53622 -2.75872,-0.977193 -4.64961,-1.439333 -1.05481,-0.257527 -2.19428,-0.52211 -3.38667,-0.811387 -0.76553,-0.183446 -1.80269,-0.342196 -2.924526,-0.370417 -2.028473,-0.04939 -4.33564,0.33161 -5.81025,1.770944 -2.00025,1.95086 -2.169583,6.021913 -1.957917,11.197163"
         style="fill:#b7e6ff;fill-opacity:1;fill-rule:nonzero;stroke:none;stroke-width:0.03527778"
         id="path1234"
         inkscape:connector-curvature="0" />
      <path
         d="m -51.873865,75.289237 c 0,0 -2.11667,1.710967 0.0988,6.515807 2.21898,4.80483 9.36273,14.01939 12.573,14.58736 3.21028,0.56797 6.03956,-3.30906 2.43417,-7.92339 -3.60186,-4.61433 -8.68539,-12.410723 -11.32769,-13.359694 -2.64231,-0.948973 -3.77825,0.179917 -3.77825,0.179917"
         style="fill:#6e59d3;fill-opacity:1;fill-rule:nonzero;stroke:none;stroke-width:0.03527778"
         id="path1236"
         inkscape:connector-curvature="0" />
      <path
         d="m -37.780395,89.139294 c 0,0 8.89705,2.54353 13.20094,4.24039 4.30389,1.70039 4.7237,2.21544 4.25097,4.00402 -0.46919,1.78859 -5.3728,0.74084 -8.72772,0.39511 -3.35492,-0.34925 -11.08075,-0.45155 -12.32958,-3.52424 -1.24883,-3.0727 1.46403,-5.59153 3.60539,-5.11528"
         style="fill:#6e59d3;fill-opacity:1;fill-rule:nonzero;stroke:none;stroke-width:0.03527778"
         id="path1238"
         inkscape:connector-curvature="0" />
      <path
         d="m -21.076375,94.914264 c -0.98072,0.0318 -2.02141,2.54353 -0.83961,3.64772 1.18181,1.1042 7.02381,3.446636 8.07509,2.832806 1.05127,-0.61031 0.35983,-3.626556 -3.8735,-5.319886 0,0 2.69522,0.19403 2.1343,-0.98778 -0.27164,-0.5715 -2.36714,-0.27164 -5.49628,-0.17286"
         style="fill:#fd5c54;fill-opacity:1;fill-rule:nonzero;stroke:none;stroke-width:0.03527778"
         id="path1240"
         inkscape:connector-curvature="0" />
      <path
         d="m -52.625285,65.358541 c 0.79022,0.405696 0.89958,1.767417 0.24694,3.044473 -0.65264,1.280583 -1.82033,1.989667 -2.61055,1.5875 -0.7867,-0.402167 -0.89959,-1.76389 -0.24695,-3.044473 0.65264,-1.277054 1.82034,-1.989667 2.61056,-1.5875"
         style="fill:#fd5c54;fill-opacity:1;fill-rule:nonzero;stroke:none;stroke-width:0.03527778"
         id="path1242"
         inkscape:connector-curvature="0" />
      <path
         d="m -60.188841,72.304737 c 0.07056,0.09172 0.14111,0.179917 0.215193,0.261054 2.000253,2.27189 4.653143,1.527529 5.789083,1.058333 0.11995,-0.05292 0.22225,-0.09878 0.30692,-0.137583 -1.05481,-0.257527 -2.19428,-0.52211 -3.38667,-0.811387 -0.76553,-0.183446 -1.80269,-0.342196 -2.924526,-0.370417"
         style="fill:#fd5c54;fill-opacity:1;fill-rule:nonzero;stroke:none;stroke-width:0.03527778"
         id="path1244"
         inkscape:connector-curvature="0" />
    </g>
  </g>
</svg>
