<?xml version="1.0" encoding="UTF-8" standalone="no"?>
<!-- Generator: Adobe Illustrator 26.1.0, SVG Export Plug-In . SVG Version: 6.00 Build 0)  -->

<svg
   xmlns:dc="http://purl.org/dc/elements/1.1/"
   xmlns:cc="http://creativecommons.org/ns#"
   xmlns:rdf="http://www.w3.org/1999/02/22-rdf-syntax-ns#"
   xmlns:svg="http://www.w3.org/2000/svg"
   xmlns="http://www.w3.org/2000/svg"
   xmlns:sodipodi="http://sodipodi.sourceforge.net/DTD/sodipodi-0.dtd"
   xmlns:inkscape="http://www.inkscape.org/namespaces/inkscape"
   version="1.1"
   id="Layer_1"
   x="0px"
   y="0px"
   viewBox="0 0 651.17352 390.5"
   xml:space="preserve"
   sodipodi:docname="signup.svg"
   width="651.17352"
   height="390.5"
   inkscape:version="0.92.5 (2060ec1f9f, 2020-04-08)"><metadata
   id="metadata339"><rdf:RDF><cc:Work
       rdf:about=""><dc:format>image/svg+xml</dc:format><dc:type
         rdf:resource="http://purl.org/dc/dcmitype/StillImage" /></cc:Work></rdf:RDF></metadata><defs
   id="defs337" /><sodipodi:namedview
   pagecolor="#ffffff"
   bordercolor="#666666"
   borderopacity="1"
   objecttolerance="10"
   gridtolerance="10"
   guidetolerance="10"
   inkscape:pageopacity="0"
   inkscape:pageshadow="2"
   inkscape:window-width="1397"
   inkscape:window-height="881"
   id="namedview335"
   showgrid="false"
   inkscape:zoom="0.38901345"
   inkscape:cx="318.74092"
   inkscape:cy="-430.89827"
   inkscape:window-x="0"
   inkscape:window-y="0"
   inkscape:window-maximized="0"
   inkscape:current-layer="Layer_1" />
<style
   type="text/css"
   id="style2">
	
		.st0{clip-path:url(#SVGID_00000175284152387921909960000003273368744591739529_);fill-rule:evenodd;clip-rule:evenodd;fill:#F6F6F6;}
	.st1{fill:#E6E6E6;}
	.st2{fill:#E4E4E4;}
	.st3{fill:#CCCCCC;}
	.st4{fill:#3F3D56;}
	.st5{fill:#FFFFFF;}
	.st6{fill:#CACACA;}
	.st7{fill:#FFB6B6;}
	.st8{fill:#2F2E41;}
	.st9{fill:#EA4343;}
	.st10{fill:#F2F2F2;}
	.st11{fill:#F9C818;}
	.st12{fill:#204EB2;}
	.st13{fill:#9E616A;}
	.st14{fill:#FC7750;}
	.st15{fill:#4D4D4D;}
</style>

<g
   id="g332"
   inkscape:transform-center-x="-2.5706052"
   inkscape:transform-center-y="-66.835735"
   transform="translate(-88.7,-54.4)">
	<path
   class="st1"
   d="m 111.2,95.9 c 33.1,-0.6 66.3,-0.7 99.4,-0.2 33.1,0.4 66.3,1.3 99.4,2.7 18.6,0.8 37.2,1.7 55.7,2.8 1.5,0.1 1.5,-2.2 0,-2.3 -33.1,-2 -66.2,-3.4 -99.3,-4.4 -33.1,-1 -66.3,-1.4 -99.4,-1.4 -18.6,0 -37.2,0.2 -55.8,0.5 -1.5,0 -1.5,2.4 0,2.3 z"
   id="path14"
   inkscape:connector-curvature="0"
   style="fill:#e6e6e6" />
	<path
   class="st1"
   d="m 342.1,81.4 14.5,-1.1 c 1.5,-0.1 1.5,-2.4 0,-2.3 l -14.5,1.1 c -1.4,0.1 -1.4,2.4 0,2.3 z"
   id="path16"
   inkscape:connector-curvature="0"
   style="fill:#e6e6e6" />
	<path
   class="st1"
   d="m 342.1,95.3 14.5,-1.1 c 1.5,-0.1 1.5,-2.4 0,-2.3 L 342.1,93 c -1.4,0.1 -1.4,2.4 0,2.3 z"
   id="path18"
   inkscape:connector-curvature="0"
   style="fill:#e6e6e6" />
	<path
   class="st1"
   d="m 341.1,89 20.6,1.9 c 1.5,0.1 1.5,-2.2 0,-2.3 l -20.6,-1.9 c -1.5,-0.2 -1.5,2.1 0,2.3 z"
   id="path20"
   inkscape:connector-curvature="0"
   style="fill:#e6e6e6" />
	<path
   class="st1"
   d="m 119.7,78.3 c -2.1,0 -3.9,1.2 -4.7,3.1 -0.9,1.9 -0.5,4.1 1.1,5.5 1.4,1.2 3.4,1.6 5.2,1.1 1.9,-0.6 3.1,-2.4 3.1,-4.4 0.1,-2.2 -1.2,-4.2 -3.2,-5 -0.6,-0.2 -1.3,0.2 -1.4,0.8 -0.2,0.6 0.2,1.2 0.8,1.4 0.2,0.1 -0.2,-0.1 0,0 0.1,0 0.2,0.1 0.2,0.1 0.1,0 0.1,0.1 0.2,0.1 0.2,0.1 -0.1,-0.1 0,0 0.1,0.1 0.2,0.2 0.3,0.3 0,0 0.2,0.2 0.1,0.1 -0.1,-0.1 0,-0.1 0,0 0,0 0.1,0.1 0.1,0.1 0.1,0.1 0.2,0.3 0.2,0.4 0,0 0,0.1 0.1,0.1 0,0.1 0.1,0.1 0,0 -0.1,-0.1 0,-0.1 0,0 0,0 0,0.1 0.1,0.1 0.1,0.2 0.1,0.3 0.1,0.5 0,0.1 0,0.1 0,0.2 0.1,0.3 0,-0.2 0,0 0,0.2 0,0.3 0,0.5 0,0.1 0,0.2 0,0.2 0,0 0,0.1 0,0.1 0,0.2 0,-0.1 0,-0.1 -0.1,0.2 -0.1,0.3 -0.1,0.5 0,0.1 0,0.1 -0.1,0.2 -0.1,0.2 0.1,-0.1 0,0 -0.1,0.1 -0.2,0.3 -0.2,0.4 0,0.1 -0.2,0.2 -0.1,0.1 0.1,-0.1 -0.1,0.1 -0.1,0.1 -0.1,0.1 -0.1,0.1 -0.2,0.2 0,0 -0.1,0.1 -0.1,0.1 0,0 0.2,-0.1 0.1,-0.1 -0.1,0.1 -0.3,0.2 -0.4,0.3 0,0 -0.2,0.1 -0.2,0.1 0,0 0.2,-0.1 0.1,0 0,0 -0.1,0 -0.1,0 -0.2,0.1 -0.3,0.1 -0.5,0.1 0,0 -0.1,0 -0.1,0 -0.1,0 0.1,0 0.1,0 -0.1,0 -0.2,0 -0.3,0 -0.2,0 -0.3,0 -0.5,0 0,0 -0.1,0 -0.1,0 -0.1,0 -0.2,-0.1 0,0 0.1,0.1 0.1,0 0,0 0,0 -0.1,0 -0.1,0 -0.2,0 -0.3,-0.1 -0.5,-0.1 -0.1,0 -0.2,-0.1 -0.3,-0.1 0,0 -0.1,0 -0.1,0 0,0 0.2,0.1 0.1,0 -0.1,-0.1 -0.3,-0.1 -0.4,-0.2 -0.1,0 -0.1,-0.1 -0.2,-0.1 0,0 -0.1,0 -0.1,-0.1 0,0 0.2,0.2 0.1,0.1 -0.1,-0.1 -0.2,-0.2 -0.4,-0.3 0,0 0,-0.1 -0.1,-0.1 v 0 c -0.1,-0.1 -0.1,-0.1 0,0 0.1,0 0.1,0.1 0,0 0,0 0,-0.1 -0.1,-0.1 -0.1,-0.1 -0.2,-0.3 -0.2,-0.4 0,0 0.1,0.3 0,0.1 0,0 0,-0.1 0,-0.1 0,-0.1 -0.1,-0.2 -0.1,-0.2 0,-0.1 0,-0.2 -0.1,-0.2 0,-0.1 0,0.1 0,0.1 0,0 0,-0.1 0,-0.2 0,-0.2 0,-0.4 0,-0.5 0,-0.1 0,0.1 0,0.1 0,0 0,-0.1 0,-0.1 0,-0.1 0,-0.2 0.1,-0.3 0,-0.1 0.1,-0.2 0.1,-0.3 0,0 0,-0.1 0,-0.1 0,-0.1 -0.1,0.2 0,0 0.1,-0.2 0.2,-0.4 0.3,-0.6 0,0 0.2,-0.3 0.1,-0.2 -0.1,0.1 0.1,-0.1 0.1,-0.1 0.1,-0.2 0.3,-0.3 0.5,-0.4 0.1,-0.1 -0.1,0 -0.1,0.1 0,0 0.1,-0.1 0.1,-0.1 0.1,-0.1 0.2,-0.1 0.2,-0.2 0.1,-0.1 0.2,-0.1 0.3,-0.2 0.1,-0.1 -0.1,0 -0.1,0 0,0 0.1,0 0.2,-0.1 0.1,0 0.5,-0.2 0.6,-0.1 0,0 -0.3,0 -0.1,0 0.1,0 0.1,0 0.2,0 0.1,0 0.2,0 0.3,0 0.6,0 1.2,-0.5 1.2,-1.2 0.2,-0.5 -0.3,-1 -1,-1 z"
   id="path22"
   inkscape:connector-curvature="0"
   style="fill:#e6e6e6" />
	<path
   class="st1"
   d="m 136,78.3 c -2.1,0 -3.9,1.2 -4.7,3.1 -0.9,1.9 -0.5,4.1 1.1,5.5 1.4,1.2 3.4,1.6 5.2,1.1 1.9,-0.6 3.1,-2.4 3.1,-4.4 0.1,-2.2 -1.2,-4.2 -3.2,-5 -0.6,-0.2 -1.3,0.2 -1.4,0.8 -0.2,0.6 0.2,1.2 0.8,1.4 0.2,0.1 -0.2,-0.1 0,0 0.1,0 0.2,0.1 0.2,0.1 0.1,0 0.1,0.1 0.2,0.1 0.2,0.1 -0.1,-0.1 0,0 0.1,0.1 0.2,0.2 0.3,0.3 0,0 0.2,0.2 0.1,0.1 -0.1,-0.1 0,-0.1 0,0 0,0 0.1,0.1 0.1,0.1 0.1,0.1 0.2,0.3 0.2,0.4 0,0 0,0.1 0.1,0.1 0,0.1 0.1,0.1 0,0 -0.1,-0.1 0,-0.1 0,0 0,0 0,0.1 0.1,0.1 0.1,0.2 0.1,0.3 0.1,0.5 0,0.1 0,0.1 0,0.2 0.1,0.3 0,-0.2 0,0 0,0.2 0,0.3 0,0.5 0,0.1 0,0.2 0,0.2 0,0 0,0.1 0,0.1 0,0.2 0,-0.1 0,-0.1 -0.1,0.2 -0.1,0.3 -0.1,0.5 0,0.1 0,0.1 -0.1,0.2 -0.1,0.2 0.1,-0.1 0,0 -0.1,0.1 -0.2,0.3 -0.2,0.4 0,0.1 -0.2,0.2 -0.1,0.1 0.1,-0.1 -0.1,0.1 -0.1,0.1 -0.1,0.1 -0.1,0.1 -0.2,0.2 0,0 -0.1,0.1 -0.1,0.1 0,0 0.2,-0.1 0.1,-0.1 -0.1,0.1 -0.3,0.2 -0.4,0.3 0,0 -0.2,0.1 -0.2,0.1 0,0 0.2,-0.1 0.1,0 0,0 -0.1,0 -0.1,0 -0.2,0.1 -0.3,0.1 -0.5,0.1 0,0 -0.1,0 -0.1,0 -0.1,0 0.1,0 0.1,0 -0.1,0 -0.2,0 -0.3,0 -0.2,0 -0.3,0 -0.5,0 0,0 -0.1,0 -0.1,0 -0.1,0 -0.2,-0.1 0,0 0.1,0.1 0.1,0 0,0 0,0 -0.1,0 -0.1,0 -0.2,0 -0.3,-0.1 -0.5,-0.1 -0.1,0 -0.2,-0.1 -0.3,-0.1 0,0 -0.1,0 -0.1,0 0,0 0.2,0.1 0.1,0 -0.1,-0.1 -0.3,-0.1 -0.4,-0.2 -0.1,0 -0.1,-0.1 -0.2,-0.1 0,0 -0.1,0 -0.1,-0.1 0,0 0.2,0.2 0.1,0.1 -0.1,-0.1 -0.2,-0.2 -0.4,-0.3 0,0 0,-0.1 -0.1,-0.1 v 0 c -0.1,-0.1 -0.1,-0.1 0,0 0.1,0 0.1,0.1 0,0 0,0 0,-0.1 -0.1,-0.1 -0.1,-0.1 -0.2,-0.3 -0.2,-0.4 0,0 0.1,0.3 0,0.1 0,0 0,-0.1 0,-0.1 0,-0.1 -0.1,-0.2 -0.1,-0.2 0,-0.1 0,-0.2 -0.1,-0.2 0,-0.1 0,0.1 0,0.1 0,0 0,-0.1 0,-0.2 0,-0.2 0,-0.4 0,-0.5 0,-0.1 0,0.1 0,0.1 0,0 0,-0.1 0,-0.1 0,-0.1 0,-0.2 0.1,-0.3 0,-0.1 0.1,-0.2 0.1,-0.3 0,0 0,-0.1 0,-0.1 0,-0.1 -0.1,0.2 0,0 0.1,-0.2 0.2,-0.4 0.3,-0.6 0,0 0.2,-0.3 0.1,-0.2 -0.1,0.1 0.1,-0.1 0.1,-0.1 0.1,-0.2 0.3,-0.3 0.5,-0.4 0.1,-0.1 -0.1,0 -0.1,0.1 0,0 0.1,-0.1 0.1,-0.1 0.1,-0.1 0.2,-0.1 0.2,-0.2 0.1,-0.1 0.2,-0.1 0.3,-0.2 0.1,-0.1 -0.1,0 -0.1,0 0,0 0.1,0 0.2,-0.1 0.1,0 0.5,-0.2 0.6,-0.1 0,0 -0.3,0 -0.1,0 0.1,0 0.1,0 0.2,0 0.1,0 0.2,0 0.3,0 0.6,0 1.2,-0.5 1.2,-1.2 0.1,-0.5 -0.4,-1 -1,-1 z"
   id="path24"
   inkscape:connector-curvature="0"
   style="fill:#e6e6e6" />
	<path
   class="st1"
   d="m 152.2,78.3 c -2.1,0 -3.9,1.2 -4.7,3.1 -0.9,1.9 -0.5,4.1 1.1,5.5 1.4,1.2 3.4,1.6 5.2,1.1 1.9,-0.6 3.1,-2.4 3.1,-4.4 0.1,-2.2 -1.2,-4.2 -3.2,-5 -0.6,-0.2 -1.3,0.2 -1.4,0.8 -0.2,0.6 0.2,1.2 0.8,1.4 0.2,0.1 -0.2,-0.1 0,0 0.1,0 0.2,0.1 0.2,0.1 0.1,0 0.1,0.1 0.2,0.1 0.2,0.1 -0.1,-0.1 0,0 0.1,0.1 0.2,0.2 0.3,0.3 0,0 0.2,0.2 0.1,0.1 -0.1,-0.1 0,-0.1 0,0 0,0 0.1,0.1 0.1,0.1 0.1,0.1 0.2,0.3 0.2,0.4 0,0 0,0.1 0.1,0.1 0,0.1 0.1,0.1 0,0 -0.1,-0.1 0,-0.1 0,0 0,0 0,0.1 0.1,0.1 0.1,0.2 0.1,0.3 0.1,0.5 0,0.1 0,0.1 0,0.2 0.1,0.3 0,-0.2 0,0 0,0.2 0,0.3 0,0.5 0,0.1 0,0.2 0,0.2 0,0 0,0.1 0,0.1 0,0.2 0,-0.1 0,-0.1 -0.1,0.2 -0.1,0.3 -0.1,0.5 0,0.1 0,0.1 -0.1,0.2 -0.1,0.2 0.1,-0.1 0,0 -0.1,0.1 -0.2,0.3 -0.2,0.4 0,0.1 -0.2,0.2 -0.1,0.1 0.1,-0.1 -0.1,0.1 -0.1,0.1 -0.1,0.1 -0.1,0.1 -0.2,0.2 0,0 -0.1,0.1 -0.1,0.1 0,0 0.2,-0.1 0.1,-0.1 -0.1,0.1 -0.3,0.2 -0.4,0.3 0,0 -0.2,0.1 -0.2,0.1 0,0 0.2,-0.1 0.1,0 0,0 -0.1,0 -0.1,0 -0.2,0.1 -0.3,0.1 -0.5,0.1 0,0 -0.1,0 -0.1,0 -0.1,0 0.1,0 0.1,0 -0.1,0 -0.2,0 -0.3,0 -0.2,0 -0.3,0 -0.5,0 0,0 -0.1,0 -0.1,0 -0.1,0 -0.2,-0.1 0,0 0.1,0.1 0.1,0 0,0 0,0 -0.1,0 -0.1,0 -0.2,0 -0.3,-0.1 -0.5,-0.1 -0.1,0 -0.2,-0.1 -0.3,-0.1 0,0 -0.1,0 -0.1,0 0,0 0.2,0.1 0.1,0 -0.1,-0.1 -0.3,-0.1 -0.4,-0.2 -0.1,0 -0.1,-0.1 -0.2,-0.1 0,0 -0.1,0 -0.1,-0.1 0,0 0.2,0.2 0.1,0.1 -0.1,-0.1 -0.2,-0.2 -0.4,-0.3 0,0 0,-0.1 -0.1,-0.1 v 0 c -0.1,-0.1 -0.1,-0.1 0,0 0.1,0 0.1,0.1 0,0 0,0 0,-0.1 -0.1,-0.1 -0.1,-0.1 -0.2,-0.3 -0.2,-0.4 0,0 0.1,0.3 0,0.1 0,0 0,-0.1 0,-0.1 0,-0.1 -0.1,-0.2 -0.1,-0.2 0,-0.1 0,-0.2 -0.1,-0.2 0,-0.1 0,0.1 0,0.1 0,0 0,-0.1 0,-0.2 0,-0.2 0,-0.4 0,-0.5 0,-0.1 0,0.1 0,0.1 0,0 0,-0.1 0,-0.1 0,-0.1 0,-0.2 0.1,-0.3 0,-0.1 0.1,-0.2 0.1,-0.3 0,0 0,-0.1 0,-0.1 0,-0.1 -0.1,0.2 0,0 0.1,-0.2 0.2,-0.4 0.3,-0.6 0,0 0.2,-0.3 0.1,-0.2 -0.1,0.1 0.1,-0.1 0.1,-0.1 0.1,-0.2 0.3,-0.3 0.5,-0.4 0.1,-0.1 -0.1,0 -0.1,0.1 0,0 0.1,-0.1 0.1,-0.1 0.1,-0.1 0.2,-0.1 0.2,-0.2 0.1,-0.1 0.2,-0.1 0.3,-0.2 0.1,-0.1 -0.1,0 -0.1,0 0,0 0.1,0 0.2,-0.1 0.1,0 0.5,-0.2 0.6,-0.1 0,0 -0.3,0 -0.1,0 0.1,0 0.1,0 0.2,0 0.1,0 0.2,0 0.3,0 0.6,0 1.2,-0.5 1.2,-1.2 0.2,-0.5 -0.3,-1 -1,-1 z"
   id="path26"
   inkscape:connector-curvature="0"
   style="fill:#e6e6e6" />
	<path
   class="st1"
   d="M 387,335.3 H 102.3 c -7.5,0 -13.6,-6.1 -13.6,-13.6 V 68 c 0,-7.5 6.1,-13.6 13.6,-13.6 H 387 c 7.5,0 13.6,6.1 13.6,13.6 v 253.7 c -0.1,7.5 -6.1,13.6 -13.6,13.6 z M 102.3,56 c -6.6,0 -12,5.4 -12,12 v 253.7 c 0,6.6 5.4,12 12,12 H 387 c 6.6,0 12,-5.4 12,-12 V 68 c 0,-6.6 -5.4,-12 -12,-12 z"
   id="path28"
   inkscape:connector-curvature="0"
   style="fill:#e6e6e6" />
	<g
   id="g58">
		<path
   class="st2"
   d="m 241.3,201.3 c -1,0 -1.8,-0.8 -1.8,-1.8 v 0 -38 c 0,-1 0.8,-1.8 1.8,-1.8 1,0 1.8,0.8 1.8,1.8 v 38 c 0.1,0.9 -0.7,1.8 -1.8,1.8 z"
   id="path30"
   inkscape:connector-curvature="0"
   style="fill:#e4e4e4" />
		<path
   class="st2"
   d="m 257.4,201.3 c -1,0 -1.8,-0.8 -1.8,-1.8 v 0 -38 c 0,-1 0.8,-1.8 1.8,-1.8 1,0 1.8,0.8 1.8,1.8 v 38 c 0.1,0.9 -0.7,1.8 -1.8,1.8 0,0 0,0 0,0 z"
   id="path32"
   inkscape:connector-curvature="0"
   style="fill:#e4e4e4" />
		<path
   class="st2"
   d="m 225.2,201.3 c -1,0 -1.8,-0.8 -1.8,-1.8 v 0 -38 c 0,-1 0.8,-1.8 1.8,-1.8 1,0 1.8,0.8 1.8,1.8 v 38 c 0.1,0.9 -0.7,1.8 -1.8,1.8 0,0 0,0 0,0 z"
   id="path34"
   inkscape:connector-curvature="0"
   style="fill:#e4e4e4" />
		<g
   id="g46">
			<path
   class="st2"
   d="m 272.3,175.3 c -1,0 -1.8,0.8 -1.8,1.8 v 1.9 c 0,1 0.8,1.8 1.8,1.8 1,0 1.8,-0.8 1.8,-1.8 v -1.9 c 0.1,-1 -0.7,-1.8 -1.8,-1.8 z"
   id="path36"
   inkscape:connector-curvature="0"
   style="fill:#e4e4e4" />
			<path
   class="st2"
   d="m 274.2,129.8 h -15 V 125 c 0,-3.3 -2.7,-6 -6,-6 h -23.9 c -3.3,0 -6,2.7 -6,6 v 4.7 h -15 c -3.1,0 -5.7,2.5 -5.7,5.7 v 6.2 c 0,3.1 2.5,5.7 5.7,5.7 h 0.1 v 62 c 0,4.4 3.5,7.9 7.9,7.9 h 49.8 c 4.4,0 7.9,-3.5 7.9,-7.9 v -20.8 c 0,-1 -0.8,-1.8 -1.8,-1.8 -1,0 -1.8,0.8 -1.8,1.8 v 20.8 c 0,2.3 -1.9,4.2 -4.2,4.2 h -49.8 c -2.3,0 -4.2,-1.9 -4.2,-4.2 v -62 h 58.3 v 20.8 c 0,1 0.8,1.8 1.8,1.8 1,0 1.8,-0.8 1.8,-1.8 v -20.8 h 0.1 c 3.1,0 5.7,-2.5 5.7,-5.7 v -6.2 c 0,-3.1 -2.5,-5.6 -5.7,-5.6 z M 227.1,125 c 0,-1.3 1,-2.3 2.3,-2.3 h 23.9 c 1.3,0 2.3,1 2.3,2.3 v 4.7 h -28.5 z m 49.2,16.6 c 0,1.1 -0.9,2 -2,2 h -65.8 c -1.1,0 -2,-0.9 -2,-2 v -6.2 c 0,-1.1 0.9,-2 2,-2 h 65.8 c 1.1,0 2,0.9 2,2 z"
   id="path38"
   inkscape:connector-curvature="0"
   style="fill:#e4e4e4" />
			<path
   class="st2"
   d="m 239.5,161.5 v 38 c 0,1 0.8,1.8 1.8,1.8 1,0 1.8,-0.8 1.8,-1.8 v 0 -38 c 0,-1 -0.8,-1.8 -1.8,-1.8 -1,0 -1.8,0.7 -1.8,1.8 z"
   id="path40"
   inkscape:connector-curvature="0"
   style="fill:#e4e4e4" />
			<path
   class="st2"
   d="m 255.6,161.5 v 38 c 0,1 0.8,1.8 1.8,1.8 1,0 1.8,-0.8 1.8,-1.8 v 0 -38 c 0,-1 -0.8,-1.8 -1.8,-1.8 -1,0 -1.8,0.7 -1.8,1.8 z"
   id="path42"
   inkscape:connector-curvature="0"
   style="fill:#e4e4e4" />
			<path
   class="st2"
   d="m 223.4,161.5 v 38 c 0,1 0.8,1.8 1.8,1.8 1,0 1.8,-0.8 1.8,-1.8 v 0 -38 c 0,-1 -0.8,-1.8 -1.8,-1.8 -1,0 -1.8,0.7 -1.8,1.8 z"
   id="path44"
   inkscape:connector-curvature="0"
   style="fill:#e4e4e4" />
		</g>
		<polygon
   class="st2"
   points="276.5,142.7 276.6,142.7 "
   id="polygon48"
   style="fill:#e4e4e4" />
		<path
   class="st2"
   d="m 276.6,142.7 v 0 c 0,0 0,0 0,0 z"
   id="path50"
   inkscape:connector-curvature="0"
   style="fill:#e4e4e4" />
		<polygon
   class="st2"
   points=""
   id="polygon52"
   style="fill:#e4e4e4" />
		<path
   class="st2"
   d="m 276.6,142.7 c 0,0 0,0 0,0 z"
   id="path54"
   inkscape:connector-curvature="0"
   style="fill:#e4e4e4" />
		<path
   class="st2"
   d="M 276.6,142.7 Z"
   id="path56"
   inkscape:connector-curvature="0"
   style="fill:#e4e4e4" />
	</g>
	<polygon
   class="st1"
   points=""
   id="polygon60"
   style="fill:#e6e6e6" />
	<path
   class="st1"
   d="M 297.8,148.8 Z"
   id="path62"
   inkscape:connector-curvature="0"
   style="fill:#e6e6e6" />
	<path
   class="st1"
   d="m 297.8,148.8 v 0 c 0,0 0,0 0,0 z"
   id="path64"
   inkscape:connector-curvature="0"
   style="fill:#e6e6e6" />
	<path
   class="st1"
   d="m 297.8,148.8 c 0,0 0,0 0,0 z"
   id="path66"
   inkscape:connector-curvature="0"
   style="fill:#e6e6e6" />
	<polygon
   class="st1"
   points=""
   id="polygon68"
   style="fill:#e6e6e6" />
	<path
   class="st1"
   d="M 343.5,164.2 Z"
   id="path70"
   inkscape:connector-curvature="0"
   style="fill:#e6e6e6" />
	<polygon
   class="st1"
   points=""
   id="polygon72"
   style="fill:#e6e6e6" />
	<polygon
   class="st1"
   points=""
   id="polygon74"
   style="fill:#e6e6e6" />
	<path
   class="st1"
   d="m 343.5,164.2 c 0,0 0,0 0,0 z"
   id="path76"
   inkscape:connector-curvature="0"
   style="fill:#e6e6e6" />
	<path
   class="st1"
   d="m 343.5,164.2 v 0 c 0,0 0,0 0,0 z"
   id="path78"
   inkscape:connector-curvature="0"
   style="fill:#e6e6e6" />
	<path
   class="st1"
   d="m 728.9,348.2 c 0,-2.3 -0.8,-4.2 -1.7,-4.2 H 467.7 c -1,0 -1.7,1.9 -1.7,4.2 v 95 c 0,0.4 -0.3,0.8 -0.8,0.9 -0.7,0.1 -1.4,0.1 -2.1,0.2 0,0 0,0 -0.1,0 -0.4,0 -0.8,0.1 -1.1,0.1 v 0 c -0.2,-0.4 -0.4,-0.7 -0.6,-1.1 -0.1,-0.1 -0.1,-0.3 -0.1,-0.4 V 342.8 c 0,-0.6 0,-1.3 0.1,-1.9 0.1,-0.9 0.2,-1.7 0.3,-2.6 0.7,-4 2.4,-6.7 4.2,-6.7 H 729 c 0.3,0 0.5,0.1 0.8,0.2 0.4,0.2 0.7,0.4 1,0.7 0.4,0.4 0.7,0.8 1,1.3 1.1,2.1 1.7,4.5 1.8,6.9 0,0 0,0.1 0,0.1 0.1,0.7 0.1,1.4 0.1,2.1 l 0.1,9.2 v 5.5 l 0.1,17.3 v 6.1 l 0.2,63 v 0 c 0,0.5 -0.4,0.9 -0.9,0.9 h -3.5 c -0.5,0 -0.9,-0.4 -0.9,-0.9 0,0 0,0 0,0 z"
   id="path80"
   inkscape:connector-curvature="0"
   style="fill:#e6e6e6" />
	<path
   class="st3"
   d="m 658.4,288.3 h -28 c -0.8,0 -1.5,0.7 -1.5,1.5 V 334 h 30.9 v -44.2 c 0.1,-0.8 -0.5,-1.5 -1.4,-1.5 0,0 0,0 0,0 z m -13.9,25.1 c -1.8,0 -3.3,-1.5 -3.3,-3.3 V 305 c 0,-1.8 1.5,-3.3 3.3,-3.3 1.8,0 3.3,1.5 3.3,3.3 v 5.1 c 0,1.9 -1.4,3.3 -3.3,3.3 z"
   id="path82"
   inkscape:connector-curvature="0"
   style="fill:#cccccc" />
	<path
   class="st4"
   d="m 628.9,332.6 v 4.3 c 0,0.5 0.4,0.8 0.8,0.8 h 29.5 c 0.5,0 0.8,-0.4 0.8,-0.8 v -4.3 z"
   id="path84"
   inkscape:connector-curvature="0"
   style="fill:#3f3d56" />
	<path
   class="st1"
   d="M 704.7,219.4 H 585.2 c -2.1,0 -3.9,1.7 -3.9,3.9 v 80.6 c 0,2.1 1.7,3.9 3.9,3.9 h 119.5 c 2.1,0 3.9,-1.7 3.9,-3.9 v -80.6 c 0,-2.1 -1.7,-3.9 -3.9,-3.9 z"
   id="path86"
   inkscape:connector-curvature="0"
   style="fill:#e6e6e6" />
	<path
   class="st5"
   d="M 703.7,222.2 H 586.2 c -1.1,0 -2.1,0.9 -2.1,2.1 v 78.6 c 0,1.1 0.9,2.1 2.1,2.1 h 117.5 c 1.1,0 2.1,-0.9 2.1,-2.1 v -78.6 c 0,-1.1 -0.9,-2.1 -2.1,-2.1 z"
   id="path88"
   inkscape:connector-curvature="0"
   style="fill:#ffffff" />
	<path
   class="st3"
   d="m 680.8,339.2 h -69.9 c -0.7,0 -1.3,-0.6 -1.3,-1.3 0,-0.1 0,-0.2 0,-0.3 l 1.1,-5.2 c 0.1,-0.6 0.7,-1 1.3,-1 h 67.7 c 0.6,0 1.1,0.4 1.3,1 l 1.1,5.2 c 0.1,0.7 -0.3,1.4 -1,1.5 -0.1,0.1 -0.2,0.1 -0.3,0.1 z"
   id="path90"
   inkscape:connector-curvature="0"
   style="fill:#cccccc" />
	<path
   class="st1"
   d="m 612.9,332.4 h 1.4 c 0.2,0 0.4,0.2 0.4,0.4 v 0.5 c 0,0.2 -0.2,0.4 -0.4,0.4 h -1.4 c -0.2,0 -0.4,-0.2 -0.4,-0.4 v -0.5 c 0,-0.3 0.2,-0.4 0.4,-0.4 z"
   id="path92"
   inkscape:connector-curvature="0"
   style="fill:#e6e6e6" />
	<path
   class="st1"
   d="m 617.2,332.4 h 1.4 c 0.2,0 0.4,0.2 0.4,0.4 v 0.5 c 0,0.2 -0.2,0.4 -0.4,0.4 h -1.4 c -0.2,0 -0.4,-0.2 -0.4,-0.4 v -0.5 c 0,-0.3 0.2,-0.4 0.4,-0.4 z"
   id="path94"
   inkscape:connector-curvature="0"
   style="fill:#e6e6e6" />
	<path
   class="st1"
   d="m 621.5,332.4 h 1.4 c 0.2,0 0.4,0.2 0.4,0.4 v 0.5 c 0,0.2 -0.2,0.4 -0.4,0.4 h -1.4 c -0.2,0 -0.4,-0.2 -0.4,-0.4 v -0.5 c 0,-0.3 0.2,-0.4 0.4,-0.4 z"
   id="path96"
   inkscape:connector-curvature="0"
   style="fill:#e6e6e6" />
	<path
   class="st1"
   d="m 625.8,332.4 h 1.4 c 0.2,0 0.4,0.2 0.4,0.4 v 0.5 c 0,0.2 -0.2,0.4 -0.4,0.4 h -1.4 c -0.2,0 -0.4,-0.2 -0.4,-0.4 v -0.5 c 0,-0.3 0.2,-0.4 0.4,-0.4 z"
   id="path98"
   inkscape:connector-curvature="0"
   style="fill:#e6e6e6" />
	<path
   class="st1"
   d="m 630.1,332.4 h 1.4 c 0.2,0 0.4,0.2 0.4,0.4 v 0.5 c 0,0.2 -0.2,0.4 -0.4,0.4 h -1.4 c -0.2,0 -0.4,-0.2 -0.4,-0.4 v -0.5 c 0,-0.3 0.2,-0.4 0.4,-0.4 z"
   id="path100"
   inkscape:connector-curvature="0"
   style="fill:#e6e6e6" />
	<path
   class="st1"
   d="m 634.4,332.4 h 1.4 c 0.2,0 0.4,0.2 0.4,0.4 v 0.5 c 0,0.2 -0.2,0.4 -0.4,0.4 h -1.4 c -0.2,0 -0.4,-0.2 -0.4,-0.4 v -0.5 c 0,-0.3 0.2,-0.4 0.4,-0.4 z"
   id="path102"
   inkscape:connector-curvature="0"
   style="fill:#e6e6e6" />
	<path
   class="st1"
   d="m 638.7,332.4 h 1.4 c 0.2,0 0.4,0.2 0.4,0.4 v 0.5 c 0,0.2 -0.2,0.4 -0.4,0.4 h -1.4 c -0.2,0 -0.4,-0.2 -0.4,-0.4 v -0.5 c 0,-0.3 0.2,-0.4 0.4,-0.4 z"
   id="path104"
   inkscape:connector-curvature="0"
   style="fill:#e6e6e6" />
	<path
   class="st1"
   d="m 643,332.4 h 1.4 c 0.2,0 0.4,0.2 0.4,0.4 v 0.5 c 0,0.2 -0.2,0.4 -0.4,0.4 H 643 c -0.2,0 -0.4,-0.2 -0.4,-0.4 v -0.5 c 0,-0.3 0.2,-0.4 0.4,-0.4 z"
   id="path106"
   inkscape:connector-curvature="0"
   style="fill:#e6e6e6" />
	<path
   class="st1"
   d="m 647.3,332.4 h 1.4 c 0.2,0 0.4,0.2 0.4,0.4 v 0.5 c 0,0.2 -0.2,0.4 -0.4,0.4 h -1.4 c -0.2,0 -0.4,-0.2 -0.4,-0.4 v -0.5 c 0.1,-0.3 0.2,-0.4 0.4,-0.4 z"
   id="path108"
   inkscape:connector-curvature="0"
   style="fill:#e6e6e6" />
	<path
   class="st1"
   d="m 651.6,332.4 h 1.4 c 0.2,0 0.4,0.2 0.4,0.4 v 0.5 c 0,0.2 -0.2,0.4 -0.4,0.4 h -1.4 c -0.2,0 -0.4,-0.2 -0.4,-0.4 v -0.5 c 0.1,-0.3 0.2,-0.4 0.4,-0.4 z"
   id="path110"
   inkscape:connector-curvature="0"
   style="fill:#e6e6e6" />
	<path
   class="st1"
   d="m 655.9,332.4 h 1.4 c 0.2,0 0.4,0.2 0.4,0.4 v 0.5 c 0,0.2 -0.2,0.4 -0.4,0.4 h -1.4 c -0.2,0 -0.4,-0.2 -0.4,-0.4 v -0.5 c 0.1,-0.3 0.2,-0.4 0.4,-0.4 z"
   id="path112"
   inkscape:connector-curvature="0"
   style="fill:#e6e6e6" />
	<path
   class="st1"
   d="m 660.3,332.4 h 1.4 c 0.2,0 0.4,0.2 0.4,0.4 v 0.5 c 0,0.2 -0.2,0.4 -0.4,0.4 h -1.4 c -0.2,0 -0.4,-0.2 -0.4,-0.4 v -0.5 c 0,-0.3 0.1,-0.4 0.4,-0.4 z"
   id="path114"
   inkscape:connector-curvature="0"
   style="fill:#e6e6e6" />
	<path
   class="st1"
   d="m 664.6,332.4 h 1.4 c 0.2,0 0.4,0.2 0.4,0.4 v 0.5 c 0,0.2 -0.2,0.4 -0.4,0.4 h -1.4 c -0.2,0 -0.4,-0.2 -0.4,-0.4 v -0.5 c 0,-0.3 0.2,-0.4 0.4,-0.4 z"
   id="path116"
   inkscape:connector-curvature="0"
   style="fill:#e6e6e6" />
	<path
   class="st1"
   d="m 668.9,332.4 h 1.4 c 0.2,0 0.4,0.2 0.4,0.4 v 0.5 c 0,0.2 -0.2,0.4 -0.4,0.4 h -1.4 c -0.2,0 -0.4,-0.2 -0.4,-0.4 v -0.5 c 0,-0.3 0.2,-0.4 0.4,-0.4 z"
   id="path118"
   inkscape:connector-curvature="0"
   style="fill:#e6e6e6" />
	<path
   class="st1"
   d="m 673.2,332.4 h 1.4 c 0.2,0 0.4,0.2 0.4,0.4 v 0.5 c 0,0.2 -0.2,0.4 -0.4,0.4 h -1.4 c -0.2,0 -0.4,-0.2 -0.4,-0.4 v -0.5 c 0,-0.3 0.2,-0.4 0.4,-0.4 z"
   id="path120"
   inkscape:connector-curvature="0"
   style="fill:#e6e6e6" />
	<path
   class="st1"
   d="m 677.5,332.4 h 1.4 c 0.2,0 0.4,0.2 0.4,0.4 v 0.5 c 0,0.2 -0.2,0.4 -0.4,0.4 h -1.4 c -0.2,0 -0.4,-0.2 -0.4,-0.4 v -0.5 c 0,-0.3 0.2,-0.4 0.4,-0.4 z"
   id="path122"
   inkscape:connector-curvature="0"
   style="fill:#e6e6e6" />
	<path
   class="st1"
   d="m 612.8,334.5 h 1.4 c 0.2,0 0.4,0.2 0.4,0.4 v 0.5 c 0,0.2 -0.2,0.4 -0.4,0.4 h -1.4 c -0.2,0 -0.4,-0.2 -0.4,-0.4 v -0.5 c 0.1,-0.2 0.2,-0.4 0.4,-0.4 z"
   id="path124"
   inkscape:connector-curvature="0"
   style="fill:#e6e6e6" />
	<path
   class="st1"
   d="m 617.1,334.5 h 1.4 c 0.2,0 0.4,0.2 0.4,0.4 v 0.5 c 0,0.2 -0.2,0.4 -0.4,0.4 h -1.4 c -0.2,0 -0.4,-0.2 -0.4,-0.4 v -0.5 c 0.1,-0.2 0.2,-0.4 0.4,-0.4 z"
   id="path126"
   inkscape:connector-curvature="0"
   style="fill:#e6e6e6" />
	<path
   class="st1"
   d="m 621.4,334.5 h 1.4 c 0.2,0 0.4,0.2 0.4,0.4 v 0.5 c 0,0.2 -0.2,0.4 -0.4,0.4 h -1.4 c -0.2,0 -0.4,-0.2 -0.4,-0.4 v -0.5 c 0.1,-0.2 0.2,-0.4 0.4,-0.4 z"
   id="path128"
   inkscape:connector-curvature="0"
   style="fill:#e6e6e6" />
	<path
   class="st1"
   d="m 625.7,334.5 h 1.4 c 0.2,0 0.4,0.2 0.4,0.4 v 0.5 c 0,0.2 -0.2,0.4 -0.4,0.4 h -1.4 c -0.2,0 -0.4,-0.2 -0.4,-0.4 v -0.5 c 0.1,-0.2 0.2,-0.4 0.4,-0.4 z"
   id="path130"
   inkscape:connector-curvature="0"
   style="fill:#e6e6e6" />
	<path
   class="st1"
   d="m 630.1,334.5 h 1.4 c 0.2,0 0.4,0.2 0.4,0.4 v 0.5 c 0,0.2 -0.2,0.4 -0.4,0.4 h -1.4 c -0.2,0 -0.4,-0.2 -0.4,-0.4 v -0.5 c 0,-0.2 0.1,-0.4 0.4,-0.4 z"
   id="path132"
   inkscape:connector-curvature="0"
   style="fill:#e6e6e6" />
	<path
   class="st1"
   d="m 634.4,334.5 h 1.4 c 0.2,0 0.4,0.2 0.4,0.4 v 0.5 c 0,0.2 -0.2,0.4 -0.4,0.4 h -1.4 c -0.2,0 -0.4,-0.2 -0.4,-0.4 v -0.5 c 0,-0.2 0.2,-0.4 0.4,-0.4 z"
   id="path134"
   inkscape:connector-curvature="0"
   style="fill:#e6e6e6" />
	<path
   class="st1"
   d="m 638.7,334.5 h 1.4 c 0.2,0 0.4,0.2 0.4,0.4 v 0.5 c 0,0.2 -0.2,0.4 -0.4,0.4 h -1.4 c -0.2,0 -0.4,-0.2 -0.4,-0.4 v -0.5 c 0,-0.2 0.2,-0.4 0.4,-0.4 z"
   id="path136"
   inkscape:connector-curvature="0"
   style="fill:#e6e6e6" />
	<path
   class="st1"
   d="m 643,334.5 h 1.4 c 0.2,0 0.4,0.2 0.4,0.4 v 0.5 c 0,0.2 -0.2,0.4 -0.4,0.4 H 643 c -0.2,0 -0.4,-0.2 -0.4,-0.4 v -0.5 c 0,-0.2 0.2,-0.4 0.4,-0.4 z"
   id="path138"
   inkscape:connector-curvature="0"
   style="fill:#e6e6e6" />
	<path
   class="st1"
   d="m 647.3,334.5 h 1.4 c 0.2,0 0.4,0.2 0.4,0.4 v 0.5 c 0,0.2 -0.2,0.4 -0.4,0.4 h -1.4 c -0.2,0 -0.4,-0.2 -0.4,-0.4 v -0.5 c 0,-0.2 0.2,-0.4 0.4,-0.4 z"
   id="path140"
   inkscape:connector-curvature="0"
   style="fill:#e6e6e6" />
	<path
   class="st1"
   d="m 651.6,334.5 h 1.4 c 0.2,0 0.4,0.2 0.4,0.4 v 0.5 c 0,0.2 -0.2,0.4 -0.4,0.4 h -1.4 c -0.2,0 -0.4,-0.2 -0.4,-0.4 v -0.5 c 0,-0.2 0.2,-0.4 0.4,-0.4 z"
   id="path142"
   inkscape:connector-curvature="0"
   style="fill:#e6e6e6" />
	<path
   class="st1"
   d="m 655.9,334.5 h 1.4 c 0.2,0 0.4,0.2 0.4,0.4 v 0.5 c 0,0.2 -0.2,0.4 -0.4,0.4 h -1.4 c -0.2,0 -0.4,-0.2 -0.4,-0.4 v -0.5 c 0,-0.2 0.2,-0.4 0.4,-0.4 z"
   id="path144"
   inkscape:connector-curvature="0"
   style="fill:#e6e6e6" />
	<path
   class="st1"
   d="m 660.2,334.5 h 1.4 c 0.2,0 0.4,0.2 0.4,0.4 v 0.5 c 0,0.2 -0.2,0.4 -0.4,0.4 h -1.4 c -0.2,0 -0.4,-0.2 -0.4,-0.4 v -0.5 c 0,-0.2 0.2,-0.4 0.4,-0.4 z"
   id="path146"
   inkscape:connector-curvature="0"
   style="fill:#e6e6e6" />
	<path
   class="st1"
   d="m 664.5,334.5 h 1.4 c 0.2,0 0.4,0.2 0.4,0.4 v 0.5 c 0,0.2 -0.2,0.4 -0.4,0.4 h -1.4 c -0.2,0 -0.4,-0.2 -0.4,-0.4 v -0.5 c 0,-0.2 0.2,-0.4 0.4,-0.4 z"
   id="path148"
   inkscape:connector-curvature="0"
   style="fill:#e6e6e6" />
	<path
   class="st1"
   d="m 668.8,334.5 h 1.4 c 0.2,0 0.4,0.2 0.4,0.4 v 0.5 c 0,0.2 -0.2,0.4 -0.4,0.4 h -1.4 c -0.2,0 -0.4,-0.2 -0.4,-0.4 v -0.5 c 0,-0.2 0.2,-0.4 0.4,-0.4 z"
   id="path150"
   inkscape:connector-curvature="0"
   style="fill:#e6e6e6" />
	<path
   class="st1"
   d="m 673.1,334.5 h 1.4 c 0.2,0 0.4,0.2 0.4,0.4 v 0.5 c 0,0.2 -0.2,0.4 -0.4,0.4 h -1.4 c -0.2,0 -0.4,-0.2 -0.4,-0.4 v -0.5 c 0,-0.2 0.2,-0.4 0.4,-0.4 z"
   id="path152"
   inkscape:connector-curvature="0"
   style="fill:#e6e6e6" />
	<path
   class="st1"
   d="m 677.4,334.5 h 1.4 c 0.2,0 0.4,0.2 0.4,0.4 v 0.5 c 0,0.2 -0.2,0.4 -0.4,0.4 h -1.4 c -0.2,0 -0.4,-0.2 -0.4,-0.4 v -0.5 c 0.1,-0.2 0.2,-0.4 0.4,-0.4 z"
   id="path154"
   inkscape:connector-curvature="0"
   style="fill:#e6e6e6" />
	<path
   class="st1"
   d="M 633.5,337.1 H 650 c 0.2,0 0.4,0.2 0.4,0.4 v 0.5 c 0,0.2 -0.2,0.4 -0.4,0.4 h -16.5 c -0.2,0 -0.4,-0.2 -0.4,-0.4 v -0.5 c 0,-0.2 0.2,-0.4 0.4,-0.4 z"
   id="path156"
   inkscape:connector-curvature="0"
   style="fill:#e6e6e6" />
	<path
   class="st6"
   d="m 697.8,233.1 h -110 c -0.2,0 -0.4,-0.2 -0.4,-0.4 0,-0.2 0.2,-0.4 0.4,-0.4 h 110 c 0.2,0 0.4,0.2 0.4,0.4 0,0.2 -0.1,0.4 -0.4,0.4 z"
   id="path158"
   inkscape:connector-curvature="0"
   style="fill:#cacaca" />
	<circle
   class="st3"
   cx="595.29999"
   cy="227.3"
   id="ellipse160"
   r="2.5999999"
   style="fill:#cccccc" />
	<circle
   class="st3"
   cx="604.20001"
   cy="227.3"
   id="ellipse162"
   r="2.5999999"
   style="fill:#cccccc" />
	<circle
   class="st3"
   cx="613.09998"
   cy="227.3"
   id="ellipse164"
   r="2.5999999"
   style="fill:#cccccc" />
	<path
   class="st3"
   d="m 692.5,225.4 h -6.3 c -0.3,0 -0.5,0.2 -0.5,0.5 0,0.3 0.2,0.5 0.5,0.5 h 6.3 c 0.3,0 0.5,-0.2 0.5,-0.5 0,-0.3 -0.3,-0.5 -0.5,-0.5 z"
   id="path166"
   inkscape:connector-curvature="0"
   style="fill:#cccccc" />
	<path
   class="st3"
   d="m 692.5,227.1 h -6.3 c -0.3,0 -0.5,0.2 -0.5,0.5 0,0.3 0.2,0.5 0.5,0.5 h 6.3 c 0.3,0 0.5,-0.2 0.5,-0.5 0,-0.2 -0.3,-0.4 -0.5,-0.5 z"
   id="path168"
   inkscape:connector-curvature="0"
   style="fill:#cccccc" />
	<path
   class="st3"
   d="m 692.5,228.9 h -6.3 c -0.3,0 -0.5,0.2 -0.5,0.5 0,0.3 0.2,0.5 0.5,0.5 h 6.3 c 0.3,0 0.5,-0.2 0.5,-0.5 0,-0.3 -0.3,-0.5 -0.5,-0.5 z"
   id="path170"
   inkscape:connector-curvature="0"
   style="fill:#cccccc" />
	<path
   class="st1"
   d="m 638,265.4 h 13.7 c 1,0 1.9,0.8 1.9,1.9 v 0 c 0,1 -0.8,1.9 -1.9,1.9 H 638 c -1,0 -1.9,-0.8 -1.9,-1.9 v 0 c 0,-1.1 0.8,-1.9 1.9,-1.9 z"
   id="path172"
   inkscape:connector-curvature="0"
   style="fill:#e6e6e6" />
	<path
   class="st1"
   d="m 629.1,272.8 h 31.5 c 1,0 1.9,0.8 1.9,1.9 v 0 c 0,1 -0.8,1.9 -1.9,1.9 h -31.5 c -1,0 -1.9,-0.8 -1.9,-1.9 v 0 c 0,-1 0.9,-1.9 1.9,-1.9 z"
   id="path174"
   inkscape:connector-curvature="0"
   style="fill:#e6e6e6" />
	<path
   class="st1"
   d="m 629.1,280.3 h 31.5 c 1,0 1.9,0.8 1.9,1.9 v 0 c 0,1 -0.8,1.9 -1.9,1.9 h -31.5 c -1,0 -1.9,-0.8 -1.9,-1.9 v 0 c 0,-1 0.9,-1.9 1.9,-1.9 z"
   id="path176"
   inkscape:connector-curvature="0"
   style="fill:#e6e6e6" />
	<polygon
   class="st7"
   points="448.4,388.3 442.1,385.2 450.8,358.8 460.1,363.2 "
   id="polygon178"
   style="fill:#ffb6b6" />
	<path
   class="st7"
   d="m 490.9,384 c -0.5,0.3 -0.9,0.6 -1.4,0.9 -0.9,0.6 -1.9,1.1 -2.8,1.7 -0.5,0.3 -0.9,0.5 -1.4,0.8 v 0 0 0 l -0.7,0.2 -1,-2.7 -0.5,-1.3 -0.7,-1.8 -1.2,-3.2 -6.5,-17.1 10.1,-2.5 0.4,1.5 v 0 l 0.2,0.8 3.5,14.2 0.7,2.9 v 0.1 l 0.4,1.7 0.4,1.5 0.4,1.7 z"
   id="path180"
   inkscape:connector-curvature="0"
   style="fill:#ffb6b6" />
	<path
   class="st8"
   d="m 550.9,324 c -0.6,1 -1.3,2 -1.9,3.1 -1.2,1.9 -2.5,3.7 -3.8,5.6 0,0 0,0 0,0 -0.7,0.7 -1.6,1.3 -2.5,1.8 0,0 -0.1,0 -0.1,0.1 -0.7,0.4 -1.4,0.6 -2.1,0.8 -0.3,0.1 -0.5,0.1 -0.8,0.2 -0.9,0.2 -1.9,0.4 -2.8,0.6 -1.6,0.3 -3.3,0.5 -4.9,0.6 -0.1,0 -0.3,0 -0.4,0 -6.7,0.5 -13.1,-0.3 -19.9,-1.6 -3.3,-0.6 -6.8,-1.4 -10.3,-2.2 -1.2,-0.3 -2.3,-0.5 -3.5,-0.8 -0.1,0 -0.2,0 -0.3,-0.1 -1.7,-0.4 -3.4,-0.7 -5.1,-1.1 -2.2,-0.5 -4.5,-0.9 -6.8,-1.3 l 0.2,3.3 c 0.1,2.6 0.7,5.1 1.6,7.5 1,2.9 1.8,5.3 0.1,10.1 l -0.8,2.3 c 0.9,2.4 0.5,5 -0.8,7.1 l -0.2,0.2 6.8,17.1 0.4,1.1 h -3.5 -4.3 -7.2 l -10.4,-20.9 -0.5,-1 v -0.1 l 1.1,-40.1 c 0,-0.4 0,-0.7 0.1,-1.1 0.4,-3.2 2.1,-6.2 4.6,-8.2 2.5,-1.9 5.6,-2.8 8.7,-2.4 l 3.6,0.5 7.3,0.9 5.1,0.7 h 0.1 l 15.1,2 1.1,-4.4 0.2,-0.1 6.4,-2.3 22,-8.1 h 0.1 l 1.4,-0.5 0.2,0.3 c 0.1,0.1 0.1,0.2 0.1,0.3 1.4,2.6 2.6,5.3 3.5,8.1 1.5,4.6 2.7,9.2 3.7,13.9 0,0.2 0.1,0.4 0.1,0.6 v 0.1 c 0,0.1 0,0.1 0,0.1 0.5,2.5 0.2,5.1 -0.7,7.3 z"
   id="path182"
   inkscape:connector-curvature="0"
   style="fill:#2f2e41" />
	<path
   class="st8"
   d="m 551.8,309.3 c -0.1,-0.3 -0.2,-0.6 -0.3,-0.9 -0.7,-2.2 -1.6,-4.4 -2.6,-6.5 -1.1,-2.4 -2.4,-5 -4,-7.8 -0.8,-1.4 -1.6,-2.8 -2.4,-4.2 -0.4,-0.7 -0.9,-1.5 -1.4,-2.2 0,0 0,-0.1 -0.1,-0.1 l -0.1,-0.2 -21.8,2.9 -8.1,1.1 -0.5,4 -0.1,1 c 0,0 0,0 0,0 l -0.3,2.7 v 0 l -0.4,3.6 v 0 l -12,-1.6 -12.4,-1.6 -6.7,-0.9 c -3.1,-0.4 -6.3,0.5 -8.7,2.4 -2.6,2 -4.3,5 -4.6,8.2 0,0.3 -0.1,0.7 -0.1,1 l -6.3,14.9 c -3.8,8.9 -6.2,18.3 -7.1,27.9 l -4.6,14.7 0.7,0.1 9.8,0.9 2.6,0.2 5.7,-8.3 c 0.6,-0.9 1.3,-1.9 1.8,-2.9 0.9,-1.6 1.8,-3.3 2.5,-5 l 12.3,-29.2 c 0.9,0.2 1.9,0.3 2.8,0.5 4.3,0.7 8.4,1.3 12.4,1.7 12.9,1.4 24,1.5 33.9,0.3 2.8,-0.3 5.5,-0.8 8.1,-1.3 1,-0.2 1.9,-0.4 2.8,-0.6 0.2,-0.1 0.4,-0.1 0.6,-0.2 3.9,-1 7,-3.9 8.3,-7.8 0.7,-2.2 0.8,-4.6 0.3,-6.8 z"
   id="path184"
   inkscape:connector-curvature="0"
   style="fill:#2f2e41" />
	<path
   class="st8"
   d="m 450.5,384 -6.9,-3.3 -1.1,-0.5 -1.7,4.2 -12,2.6 c -1.5,0.3 -2.5,1.9 -2.2,3.4 0.2,0.9 0.8,1.7 1.7,2 l 11.7,4.8 3.7,-3.3 -0.9,4.5 4.4,1.8 4.8,-15.4 z"
   id="path186"
   inkscape:connector-curvature="0"
   style="fill:#2f2e41" />
	<polygon
   class="st8"
   points="493,378.6 492.6,378.6 492.6,377.5 "
   id="polygon188"
   style="fill:#2f2e41" />
	<path
   class="st8"
   d="m 490.2,378.8 -7.2,2.5 -1.1,0.4 1.7,4.2 -6.7,10.3 c -0.9,1.3 -0.5,3.1 0.8,3.9 0.8,0.5 1.8,0.6 2.6,0.2 l 11.7,-4.8 0.3,-5 2.5,3.8 4.4,-1.8 -7.4,-14.3 z"
   id="path190"
   inkscape:connector-curvature="0"
   style="fill:#2f2e41" />
	<path
   class="st7"
   d="m 446.6,224.9 c 1.3,2.5 4.4,3.5 6.9,2.2 0.3,-0.1 0.5,-0.3 0.8,-0.5 l 15.1,10 v -9.4 l -14.3,-8.1 c -1.9,-2.1 -5.1,-2.4 -7.2,-0.5 -1.9,1.6 -2.4,4.2 -1.3,6.3 z"
   id="path192"
   inkscape:connector-curvature="0"
   style="fill:#ffb6b6" />
	<path
   class="st3"
   d="m 457.9,229.2 7,-8 28.7,17 38,-3.5 c 7.1,-0.6 13.3,4.6 14,11.6 0.1,0.8 0.1,1.6 0,2.4 v 0 c -0.7,7.1 -6.9,12.3 -14,11.6 l -42.8,-4 z"
   id="path194"
   inkscape:connector-curvature="0"
   style="fill:#cccccc" />
	<path
   class="st3"
   d="m 546.1,229.3 v 0 0 c -11,-1.2 -21.5,4.3 -27,13.8 l -3.2,5.7 c -10.4,12.8 -2.9,21.6 -2.4,22.9 l -3.6,16.7 0.8,5.6 0.4,1.7 41.4,21.6 c 2.4,-11.3 0.1,-21 -8.5,-28.3 l 8.3,-25.8 c 3.7,-11.6 1.4,-24.3 -6.2,-33.9 z"
   id="path196"
   inkscape:connector-curvature="0"
   style="fill:#cccccc" />
	<path
   class="st9"
   d="M 513.2,354.8 H 500 c -1.5,0 -2.8,-1.1 -3,-2.6 -0.8,-6 -0.8,-12.1 0,-18.2 0.2,-1.5 1.5,-2.6 2.9,-2.6 4.2,-1.9 8.7,-1.9 13.4,0 0.9,0 1.7,0.4 2.3,1.1 0.6,0.7 0.8,1.7 0.6,2.6 -1.1,5.3 -1.1,10.8 0,16.1 0.2,0.9 0,1.8 -0.6,2.6 -0.6,0.6 -1.4,1 -2.4,1 z"
   id="path198"
   inkscape:connector-curvature="0"
   style="fill:#ea4343" />
	<path
   class="st5"
   d="m 511.9,338.4 h -11.2 c -0.4,0 -0.7,-0.3 -0.7,-0.7 0,-0.4 0.3,-0.7 0.7,-0.7 0,0 0,0 0,0 h 11.2 c 0.4,0 0.7,0.3 0.7,0.7 0,0.3 -0.3,0.7 -0.7,0.7 0,0 0,0 0,0 z"
   id="path200"
   inkscape:connector-curvature="0"
   style="fill:#ffffff" />
	<path
   class="st5"
   d="m 511.9,343.9 h -11.2 c -0.4,0 -0.7,-0.3 -0.7,-0.7 0,-0.4 0.3,-0.7 0.7,-0.7 0,0 0,0 0,0 h 11.2 c 0.4,0 0.7,0.3 0.7,0.7 0,0.4 -0.3,0.7 -0.7,0.7 0,0 0,0 0,0 z"
   id="path202"
   inkscape:connector-curvature="0"
   style="fill:#ffffff" />
	<path
   class="st5"
   d="m 511.9,349.5 h -11.2 c -0.4,0 -0.7,-0.3 -0.7,-0.7 0,-0.4 0.3,-0.7 0.7,-0.7 0,0 0,0 0,0 h 11.2 c 0.4,0 0.7,0.3 0.7,0.7 0,0.4 -0.3,0.7 -0.7,0.7 0,0 0,0 0,0 z"
   id="path204"
   inkscape:connector-curvature="0"
   style="fill:#ffffff" />
	<path
   class="st9"
   d="m 449,229.5 h -13.3 c -1.5,0 -2.8,-1.1 -3,-2.6 -0.8,-6 -0.8,-12.1 0,-18.2 0.2,-1.5 1.5,-2.6 2.9,-2.6 4.2,-1.9 8.7,-1.9 13.4,0 0.9,0 1.7,0.4 2.3,1.1 0.6,0.7 0.8,1.7 0.6,2.6 -1.1,5.3 -1.1,10.8 0,16.1 0.2,0.9 0,1.8 -0.6,2.6 -0.5,0.6 -1.4,1 -2.3,1 z"
   id="path206"
   inkscape:connector-curvature="0"
   style="fill:#ea4343" />
	<path
   class="st5"
   d="m 447.6,213 h -11.2 c -0.4,0 -0.7,-0.3 -0.7,-0.7 0,-0.4 0.3,-0.7 0.7,-0.7 0,0 0,0 0,0 h 11.2 c 0.4,0 0.7,0.3 0.7,0.7 0,0.4 -0.3,0.7 -0.7,0.7 0,0 0,0 0,0 z"
   id="path208"
   inkscape:connector-curvature="0"
   style="fill:#ffffff" />
	<path
   class="st5"
   d="m 447.6,218.6 h -11.2 c -0.4,0 -0.7,-0.3 -0.7,-0.7 0,-0.4 0.3,-0.7 0.7,-0.7 0,0 0,0 0,0 h 11.2 c 0.4,0 0.7,0.3 0.7,0.7 0,0.4 -0.3,0.7 -0.7,0.7 0,0 0,0 0,0 z"
   id="path210"
   inkscape:connector-curvature="0"
   style="fill:#ffffff" />
	<path
   class="st5"
   d="m 447.6,224.2 h -11.2 c -0.4,0 -0.7,-0.3 -0.7,-0.7 0,-0.4 0.3,-0.7 0.7,-0.7 0,0 0,0 0,0 h 11.2 c 0.4,0 0.7,0.3 0.7,0.7 0,0.4 -0.3,0.7 -0.7,0.7 0,0 0,0 0,0 z"
   id="path212"
   inkscape:connector-curvature="0"
   style="fill:#ffffff" />
	<path
   class="st7"
   d="m 517.1,337.8 c 2.4,-1.4 3.2,-4.6 1.8,-7 -0.2,-0.3 -0.3,-0.5 -0.5,-0.7 l 9.1,-15.7 -9.4,0.5 -7.2,14.8 c -2,2 -2.1,5.2 -0.1,7.3 1.7,1.7 4.3,2.1 6.3,0.8 z"
   id="path214"
   inkscape:connector-curvature="0"
   style="fill:#ffb6b6" />
	<path
   class="st3"
   d="m 520.8,326.3 -8.4,-6.6 15.3,-29.6 -5.7,-37.8 c -1.1,-7 3.8,-13.6 10.8,-14.6 0.8,-0.1 1.6,-0.2 2.4,-0.1 v 0 c 7.1,0.2 12.7,6.2 12.4,13.3 l -1.4,43 z"
   id="path216"
   inkscape:connector-curvature="0"
   style="fill:#cccccc" />
	<circle
   class="st7"
   cx="536.59998"
   cy="208.2"
   r="16.1"
   id="circle218"
   style="fill:#ffb6b6" />
	<path
   class="st8"
   d="m 588.4,232 c -1.9,2.6 -4.6,4.6 -7.7,5.4 -1.2,0.4 -2.5,0.6 -3.8,0.7 -0.2,-1.5 -0.5,-2.9 -1.1,-4.3 0.1,1.4 -0.1,2.9 -0.6,4.2 -1.9,-0.1 -3.9,-0.6 -5.6,-1.5 -3.5,-1.7 -5.9,-5 -6.6,-8.9 -0.7,-4.4 1.3,-8.7 2,-13.2 0.7,-4.4 -0.6,-10 -5,-11.1 -3.3,-0.9 -2.9,-0.5 -5.6,1.5 2.8,4.2 -7.7,19.6 -11.9,18.3 -2.4,-0.8 -4,-3 -4.5,-3 -3.4,5.8 3,15.6 -3.4,17.6 l 0.5,-0.5 c 3.9,-4.8 -4.2,-14.8 -0.3,-19.6 1.1,-1.3 2.2,-2.9 1.9,-4.6 -0.3,-1.6 -2.8,-2.4 -3.6,-1.1 1.3,-3.1 -0.6,-7.2 -3.9,-7.9 -2.9,-0.7 -2.9,0.2 -5.8,0.5 -0.2,-1.3 -0.5,-2.5 -1.1,-3.7 0.1,1.3 -0.1,2.5 -0.4,3.7 -1,0 -2,-0.4 -2.8,-1 -2.4,-1.9 -1.9,-5.9 0.2,-8.1 2.1,-2.2 5.3,-3 8.3,-3.5 0.9,-6.1 17.7,-6.7 19.9,-0.6 0.9,-4.5 6.6,-6.9 11.1,-5.5 4.4,1.4 7.5,5.5 9.1,9.9 1.6,4.4 2.1,9 3.1,13.6 1,4.6 2.7,9.1 6.1,12.2 3.5,3.1 9.1,4.1 12.8,1.2 1,3.2 0.5,6.6 -1.3,9.3 z"
   id="path220"
   inkscape:connector-curvature="0"
   style="fill:#2f2e41" />
	<path
   class="st2"
   d="m 739.8,268.8 -2.3,11.3 c -0.2,0.9 -0.3,1.7 -0.5,2.6 -1.9,-0.4 -3.8,-0.3 -5.7,0.3 1.5,2.1 2.8,4.3 3.9,6.5 -1.4,4.4 -3.5,8.4 -7,11.4 -4.8,3.9 -11.2,5 -17,3 l 0.1,-0.4 c -3.8,-7.3 -1.7,-16.5 3,-23.2 2.4,-3.3 5.2,-6.3 8.4,-8.9 3.2,-2.6 6.6,-5 10,-7.3 2.1,-1.5 5,-0.9 6.4,1.2 0.7,1 0.9,2.3 0.7,3.5 z"
   id="path222"
   inkscape:connector-curvature="0"
   style="fill:#e4e4e4" />
	<path
   id="a7585634-9c2c-4d81-a429-c019b32aabf2-1471"
   class="st10"
   d="m 712,331.2 c -1,-6.9 -1.9,-13.9 -1.3,-20.9 0.6,-6.2 2.5,-12.3 6.4,-17.3 2.1,-2.6 4.5,-4.9 7.4,-6.7 0.7,-0.5 1.4,0.7 0.7,1.2 -4.9,3.1 -8.7,7.7 -10.8,13 -2.4,6 -2.7,12.5 -2.3,18.9 0.2,3.8 0.8,7.7 1.3,11.5 0.1,0.4 -0.1,0.7 -0.5,0.8 -0.4,0.1 -0.8,-0.1 -0.9,-0.5 z"
   inkscape:connector-curvature="0"
   style="fill:#f2f2f2" />
	<path
   class="st2"
   d="m 130.8,381 -2.3,11.3 c -0.2,0.9 -0.3,1.7 -0.5,2.6 -1.9,-0.4 -3.8,-0.3 -5.7,0.3 1.5,2.1 2.8,4.3 3.9,6.5 -1.4,4.4 -3.5,8.4 -7,11.4 -4.8,3.9 -11.2,5 -17,3 l 0.1,-0.4 c -3.8,-7.3 -1.7,-16.5 3,-23.2 2.4,-3.3 5.2,-6.3 8.4,-8.9 3.2,-2.6 6.6,-5 10,-7.3 2.1,-1.5 5,-0.9 6.4,1.2 0.6,1 0.9,2.2 0.7,3.5 z"
   id="path225"
   inkscape:connector-curvature="0"
   style="fill:#e4e4e4" />
	<path
   id="b311a411-101b-4365-a37b-2cdfec47a637-1470"
   class="st10"
   d="m 103,443.4 c -1,-6.9 -1.9,-13.9 -1.3,-20.9 0.6,-6.2 2.5,-12.3 6.4,-17.3 2.1,-2.6 4.5,-4.9 7.4,-6.7 0.7,-0.5 1.4,0.7 0.7,1.2 -4.9,3.1 -8.7,7.7 -10.8,13 -2.4,6 -2.7,12.5 -2.3,18.9 0.2,3.8 0.8,7.7 1.3,11.5 0.1,0.4 -0.1,0.7 -0.5,0.8 -0.4,0.1 -0.8,-0.1 -0.9,-0.5 z"
   inkscape:connector-curvature="0"
   style="fill:#f2f2f2" />
	<path
   class="st1"
   d="m 152.3,225.2 0.6,-36.5 c 0,-1.5 -2.3,-1.5 -2.3,0 l -0.6,36.5 c 0,1.5 2.3,1.5 2.3,0 z"
   id="path228"
   inkscape:connector-curvature="0"
   style="fill:#e6e6e6" />
	<polygon
   class="st1"
   points=""
   id="polygon230"
   style="fill:#e6e6e6" />
	<path
   class="st1"
   d="m 151.6,183.6 c 0,0 0,0 0,0 z"
   id="path232"
   inkscape:connector-curvature="0"
   style="fill:#e6e6e6" />
	<path
   class="st1"
   d="M 151.6,183.6 Z"
   id="path234"
   inkscape:connector-curvature="0"
   style="fill:#e6e6e6" />
	<path
   class="st1"
   d="m 151.6,183.6 v 0 c 0,0 0,0 0,0 z"
   id="path236"
   inkscape:connector-curvature="0"
   style="fill:#e6e6e6" />
	<polygon
   class="st1"
   points=""
   id="polygon238"
   style="fill:#e6e6e6" />
	<polygon
   class="st1"
   points=""
   id="polygon240"
   style="fill:#e6e6e6" />
	<polygon
   class="st1"
   points="249.1,172.8 249,172.8 "
   id="polygon242"
   style="fill:#e6e6e6" />
	<path
   class="st1"
   d="M 249.1,172.8 Z"
   id="path244"
   inkscape:connector-curvature="0"
   style="fill:#e6e6e6" />
	<path
   class="st1"
   d="m 249.1,172.8 v 0 c 0,0 0,0 0,0 z"
   id="path246"
   inkscape:connector-curvature="0"
   style="fill:#e6e6e6" />
	<path
   class="st1"
   d="m 249.1,172.8 c 0,0 0,0 0,0 z"
   id="path248"
   inkscape:connector-curvature="0"
   style="fill:#e6e6e6" />
	<path
   class="st4"
   d="m 330.9,199.7 -36,2 c -0.4,0 -0.8,-0.3 -0.8,-0.7 0,-0.4 0.3,-0.8 0.7,-0.8 l 36.8,-6 z"
   id="path250"
   inkscape:connector-curvature="0"
   style="fill:#3f3d56" />
	<path
   class="st7"
   d="m 376.7,279.8 13.6,-22.8 10,4.7 c 0,0 -17.3,21.6 -17.8,22.2 0.6,2.9 -1.2,5.7 -4,6.3 -2.9,0.6 -5.7,-1.2 -6.3,-4 -0.6,-2.9 1.2,-5.7 4,-6.3 0.1,0 0.3,-0.1 0.5,-0.1 z"
   id="path252"
   inkscape:connector-curvature="0"
   style="fill:#ffb6b6" />
	<path
   class="st11"
   d="m 382.3,226.8 22,11.5 c 5.4,3.9 6.7,11.5 2.8,17 -0.2,0.3 -0.5,0.6 -0.7,0.9 l -15.1,17.4 -6.6,-8.9 5.1,-10.6 -9.8,-2.6 z"
   id="path254"
   inkscape:connector-curvature="0"
   style="fill:#f9c818" />
	<path
   class="st7"
   d="m 319.7,200.1 -2.5,26.4 h -11.1 c 0,0 6.4,-26.9 6.6,-27.7 -1.8,-2.3 -1.4,-5.6 0.9,-7.4 2.3,-1.8 5.6,-1.4 7.4,0.9 1.8,2.3 1.4,5.6 -0.9,7.4 -0.1,0.2 -0.2,0.3 -0.4,0.4 z"
   id="path256"
   inkscape:connector-curvature="0"
   style="fill:#ffb6b6" />
	<path
   class="st11"
   d="m 341.8,254.1 -25.5,-4.7 c -10.7,-1.3 -15.1,-8.4 -13.2,-15.3 l 6.2,-22.2 9.8,5.2 v 11.8 l 13.7,-1.9 z"
   id="path258"
   inkscape:connector-curvature="0"
   style="fill:#f9c818" />
	<polygon
   class="st7"
   points="331.3,436.7 324.3,436.7 321,409.6 331.3,409.6 "
   id="polygon260"
   style="fill:#ffb6b6" />
	<path
   class="st12"
   d="M 331.6,444 H 310 v -0.3 c 0,-4.6 3.8,-8.4 8.4,-8.4 v 0 l 3.9,-3 7.4,3 h 1.9 z"
   id="path262"
   inkscape:connector-curvature="0"
   style="fill:#204eb2" />
	<polygon
   class="st7"
   points="380.9,436.7 388,436.7 391.3,409.6 380.9,409.6 "
   id="polygon264"
   style="fill:#ffb6b6" />
	<path
   class="st12"
   d="m 380.7,444 h 21.6 v -0.3 c 0,-4.6 -3.8,-8.4 -8.4,-8.4 v 0 l -3.9,-3 -7.4,3 h -1.9 z"
   id="path266"
   inkscape:connector-curvature="0"
   style="fill:#204eb2" />
	<path
   class="st8"
   d="m 320.7,389.7 c 0.1,-1.5 0.9,-10.1 0.9,-10.1 l 2,-18.1 3.5,-48 3.1,-12.6 15.3,6 12.4,-6 14.8,4.7 11.5,4.3 c 0,0 0,1.8 0.1,4.1 0.1,2.9 0.3,6.5 0.8,7.4 0.8,1.6 0.6,10.5 0.6,10.5 0,0 0.8,18 1.8,20 1,2 1.2,6.1 0.9,6.9 -0.3,0.8 1,22.4 1,22.4 0,0 3.4,38.2 1.3,44 -2.1,5.8 -10.3,2 -10.3,2 0,0 0.4,-1.5 -2,-2.3 -2.4,-0.7 -9.6,-54.9 -9.6,-54.9 0,0 -1.3,-11.1 -2.6,-14.3 -1.3,-3.2 -2.4,-12.1 -2.4,-12.1 0,0 -7.6,-14.8 -7.7,-18.1 0,0 -1,-3.1 -1.9,0.3 -0.9,3.4 -3.7,11.5 -3.7,11.5 l -2.7,10 -3.2,14.9 -2.1,12.6 c 0,0 -3.1,16.7 -3.6,17.4 -0.5,0.7 0,15.9 0,15.9 0,0 -2.4,13 -5.8,15.2 -3.4,2.3 -12.3,0 -12.3,0 0,0 -0.2,-32 -0.1,-33.6 z"
   id="path268"
   inkscape:connector-curvature="0"
   style="fill:#2f2e41" />
	<path
   class="st11"
   d="m 332.1,260.4 -2,25.4 -2.9,3 c -1.1,1.1 -1.1,2.9 0.1,4 0,0 0.1,0.1 0.1,0.1 v 0 l -1.6,2.8 -0.6,8.8 c -0.6,2.6 1,5.1 3.5,5.7 0.3,0.1 0.6,0.1 0.9,0.1 l 50.8,2.4 c 2.6,0.1 4.9,-1.9 5,-4.5 0,-0.3 0,-0.6 0,-0.9 l -4.3,-32.5 v -2.4 l -1.9,-4.7 1,-15.7 2.3,-25 -13.4,-3.5 -7.3,-5 -12.7,0.2 -7.7,6.3 -10.2,1.6 -7.7,1.5 -1,2.1 2,-0.4 7.1,27.9 z"
   id="path270"
   inkscape:connector-curvature="0"
   style="fill:#f9c818" />
	<circle
   class="st7"
   cx="355"
   cy="200.2"
   r="14.9"
   id="circle272"
   style="fill:#ffb6b6" />
	<path
   class="st8"
   d="m 351.4,214.1 10.8,-0.5 c 1.4,-0.1 2.9,-0.2 3.9,-1.1 0.5,-0.6 1,-1.3 1.2,-2 1,-2.3 2,-4.6 3,-6.9 1.3,-3.2 2.7,-6.6 2.3,-10.1 -0.1,-1.6 -0.7,-3.1 -1.9,-4.2 -1.2,-1.1 -3,-1.3 -4.3,-0.4 -0.3,-2.2 -1.7,-4.2 -3.6,-5.3 -1.9,-1.1 -4.2,-1.5 -6.4,-1.4 -3.2,0.2 -6.3,1.4 -8.8,3.5 -0.7,0.6 -1.5,1.2 -2.2,1.8 -0.8,0.5 -1.8,0.7 -2.7,0.5 -1,-0.3 -1.6,-1.2 -1.5,-2.2 -1.6,1.2 -2,3.4 -1,5 -1.1,0.5 -2.4,0.3 -3.4,-0.4 -2.1,1 -2.9,3.6 -1.9,5.6 1,2.1 3.6,2.9 5.6,1.9 0.2,-0.1 0.5,-0.3 0.7,-0.4 0.7,0.9 0.4,2.2 0.3,3.3 -0.1,1.1 0.2,2.5 1.3,2.8 1.5,0.4 2.6,-1.5 4.2,-1.5 0.8,0.1 1.4,0.5 1.8,1.2 0.4,0.7 0.6,1.4 0.7,2.1 l 1.9,8.7"
   id="path274"
   inkscape:connector-curvature="0"
   style="fill:#2f2e41" />
	<path
   class="st9"
   d="m 258.6,263.5 h -13.3 c -1.5,0 -2.8,-1.1 -3,-2.6 -0.8,-6 -0.8,-12.1 0,-18.2 0.2,-1.5 1.5,-2.6 2.9,-2.6 4.2,-1.9 8.7,-1.9 13.4,0 0.9,0 1.7,0.4 2.3,1.1 0.6,0.7 0.8,1.7 0.6,2.6 -1.1,5.3 -1.1,10.8 0,16.1 0.2,0.9 0,1.8 -0.6,2.6 -0.6,0.6 -1.4,1 -2.3,1 z"
   id="path276"
   inkscape:connector-curvature="0"
   style="fill:#ea4343" />
	<path
   class="st5"
   d="M 257.2,247.1 H 246 c -0.4,0 -0.7,-0.3 -0.7,-0.7 0,-0.4 0.3,-0.7 0.7,-0.7 0,0 0,0 0,0 h 11.2 c 0.4,0 0.7,0.3 0.7,0.7 0,0.4 -0.3,0.6 -0.7,0.7 0,0 0,0 0,0 z"
   id="path278"
   inkscape:connector-curvature="0"
   style="fill:#ffffff" />
	<path
   class="st5"
   d="M 257.2,252.6 H 246 c -0.4,0 -0.7,-0.3 -0.7,-0.7 0,-0.4 0.3,-0.7 0.7,-0.7 0,0 0,0 0,0 h 11.2 c 0.4,0 0.7,0.3 0.7,0.7 0,0.4 -0.3,0.7 -0.7,0.7 0,0 0,0 0,0 z"
   id="path280"
   inkscape:connector-curvature="0"
   style="fill:#ffffff" />
	<path
   class="st5"
   d="M 257.2,258.2 H 246 c -0.4,0 -0.7,-0.3 -0.7,-0.7 0,-0.4 0.3,-0.7 0.7,-0.7 0,0 0,0 0,0 h 11.2 c 0.4,0 0.7,0.3 0.7,0.7 0,0.4 -0.3,0.7 -0.7,0.7 0,0 0,0 0,0 z"
   id="path282"
   inkscape:connector-curvature="0"
   style="fill:#ffffff" />
	<path
   class="st13"
   d="m 156.4,318.2 c 2,-2 2,-5.3 0,-7.3 -0.2,-0.2 -0.4,-0.4 -0.7,-0.6 l 8.2,-40.7 -9,2.9 -6.6,39.3 c -1.5,2.4 -0.7,5.6 1.8,7.1 2,1.4 4.6,1 6.3,-0.7 z"
   id="path284"
   inkscape:connector-curvature="0"
   style="fill:#9e616a" />
	<path
   class="st14"
   d="m 168.5,232.2 -5.6,-4.2 c 0,0 -4.9,-0.4 -5.8,8.6 -0.9,8.9 -2.7,26.3 -2.7,26.3 l -8.6,39.8 11.9,2.6 9.2,-42.9 5.5,-12.7 z"
   id="path286"
   inkscape:connector-curvature="0"
   style="fill:#fc7750" />
	<polygon
   class="st13"
   points="159.2,297.1 190.8,296.6 193.5,275 159.2,275 "
   id="polygon288"
   style="fill:#9e616a" />
	<polygon
   class="st13"
   points="187.7,430 195,430 198.4,401.9 187.7,401.9 "
   id="polygon290"
   style="fill:#9e616a" />
	<polygon
   class="st13"
   points="141.9,430.7 149.2,430.7 152.5,402.5 143,404.7 "
   id="polygon292"
   style="fill:#9e616a" />
	<polygon
   class="st7"
   points="194.2,257.4 190.6,253.1 164.8,256.4 163.1,260.7 163.4,265 195.8,276.2 "
   id="polygon294"
   style="fill:#ffb6b6" />
	<circle
   class="st13"
   cx="178.60001"
   cy="206.10001"
   r="11.6"
   id="circle296"
   style="fill:#9e616a" />
	<path
   class="st8"
   d="m 185.8,426.4 11.5,-0.7 v 4.9 l 11,7.6 c 1.4,1 1.8,2.9 0.8,4.3 -0.6,0.8 -1.5,1.3 -2.5,1.3 h -13.7 l -2.4,-4.9 -0.9,4.9 h -5.2 z"
   id="path298"
   inkscape:connector-curvature="0"
   style="fill:#2f2e41" />
	<path
   class="st8"
   d="m 139.4,427.1 11.5,-0.8 v 4.9 l 11,7.5 c 1.4,1 1.8,2.9 0.8,4.3 -0.6,0.8 -1.5,1.3 -2.5,1.4 l -13.7,0.1 -2.4,-4.9 -0.9,4.9 H 138 Z"
   id="path300"
   inkscape:connector-curvature="0"
   style="fill:#2f2e41" />
	<path
   class="st8"
   d="m 139.7,409.1 5.3,-42.5 6.3,-44.8 c -4.6,-8.6 5.8,-35.3 5.8,-35.3 l 1.5,0.1 33.3,6.3 v 0 c 6.8,18.6 9.1,27.8 8.7,47.6 l -1.3,71.1 h 0.4 c 1.5,0 2.6,1.2 2.6,2.6 0,1.5 -1.2,2.6 -2.6,2.6 h -13.2 c -1.5,0 -2.6,-1.2 -2.6,-2.6 0,-1.5 1.2,-2.6 2.6,-2.6 0,0 0,0 0,0 h 0.3 l -12.1,-84.7 -10.3,35.6 -11.6,46.4 c 4.2,-1.1 3.6,1.4 3.6,2.8 0,1.5 -1.2,2.6 -2.6,2.6 h -13.2 c -1.5,0 -2.6,-1.2 -2.6,-2.6 0,-1.2 0.7,-2.2 1.7,-2.6 z"
   id="path302"
   inkscape:connector-curvature="0"
   style="fill:#2f2e41" />
	<path
   class="st14"
   d="m 154.5,288 1.1,-10.5 c 0.2,-0.9 1,-1.5 1.9,-1.6 0.4,-5 2.3,-26.7 2.4,-27.6 v 0 l 0.8,-17.9 c 0.1,-1.3 1.1,-2.4 2.5,-2.5 l 4.4,-0.3 c 0.1,0 0.2,-0.1 0.2,-0.2 0,-2.1 1.7,-3.7 3.7,-3.7 0,0 0,0 0,0 h 13.1 c 1.8,0 3.2,1.3 3.5,3.1 0,0.1 0.1,0.2 0.2,0.2 v 0 c 3.1,-0.1 5.8,2.1 6.3,5.2 1.8,10.4 5.4,34.2 3.6,47.3 -0.6,4.6 0.7,1 1,4.8 0,0.7 -0.2,1.5 -0.7,2 1,0.4 1.6,1.5 1.2,2.6 l 0.2,-0.1 c -0.3,1.1 -1.4,1.8 -2.6,1.5 0,0 0,0 0,0 l -34.4,4.7 c -0.9,-0.5 -8.7,-5.9 -8.4,-7 z"
   id="path304"
   inkscape:connector-curvature="0"
   style="fill:#fc7750" />
	<path
   class="st13"
   d="m 246.3,245.1 c -0.8,2.7 -3.7,4.3 -6.4,3.5 -0.3,-0.1 -0.6,-0.2 -0.8,-0.3 l -13.3,12.1 -1.8,-9.4 12.9,-10.1 c 1.5,-2.5 4.6,-3.3 7.1,-1.8 2.1,1.3 3,3.7 2.3,6 z"
   id="path306"
   inkscape:connector-curvature="0"
   style="fill:#9e616a" />
	<path
   class="st14"
   d="m 200.1,235.8 c 0,0 -4.6,-10.5 -10.5,-8.4 -5.9,2.1 -2.8,12.2 -2.8,12.2 l 22,33.1 c 0,0 31.7,-20.3 27.9,-20.5 -3.8,-0.2 -5,-7.2 -5,-7.2 l -16.8,8.4 -0.6,-3 -0.9,0.9 -2.3,-1.8 z"
   id="path308"
   inkscape:connector-curvature="0"
   style="fill:#fc7750" />
	<path
   class="st8"
   d="m 165,199 c -1.8,0.9 -3.8,-0.4 -5.3,-1.7 l 0.5,0.5 c -2.7,2.6 -4,6.4 -4.6,10.1 -0.6,3.7 -0.7,7.5 -1.5,11.2 -0.8,3.7 -2.4,7.4 -5.4,9.7 -4,3 -9.6,2.8 -14.6,1.9 -0.1,0 -0.1,0 -0.2,0 1.3,-3.9 1.9,-7.9 1.6,-12 -1.3,4.1 -3.6,7.8 -6.6,10.8 -3.3,-0.9 -6.5,-2.1 -9.6,-3.5 -2,-0.9 -4.2,-2.2 -4.7,-4.3 -0.6,-2.1 0.7,-4.4 2.5,-5.7 1.7,-1.3 3.9,-2 5.8,-3 2,-1 3.9,-2.3 4.7,-4.4 1.8,-4.7 -3.4,-10.1 -1.3,-14.7 1,-2.3 3.4,-3.5 5.7,-4.5 3.5,-1.5 7.1,-2.7 10.8,-3.6 3.2,-0.8 6.6,-1.5 9.9,-1 3.3,0.5 6.5,2.6 7.7,5.7 2,0.7 4.1,1.4 5.3,3.1 1.3,1.7 1.2,4.6 -0.7,5.4 z"
   id="path310"
   inkscape:connector-curvature="0"
   style="fill:#2f2e41" />
	<path
   class="st8"
   d="m 180.8,193.6 c -5.1,-4 -9.2,-3.3 -12.3,-0.8 -0.5,-0.6 -2.8,1 -3.6,0.8 l -2.8,5.2 c -1.4,2.5 -2,5.1 -1.8,6.5 -2.6,7.4 3.6,12.3 11,14.9 2.9,1.1 6.1,1.1 9.1,0.1 l 0.1,-1.3 0.6,1 c 0,0 6.7,13.8 8.3,14.5 -1,-2.5 -3.5,-14.4 -4.2,-16.9 -1,-3.4 -0.3,-8.7 0.3,-12 0.4,-2 0.4,-4.1 0.1,-6.1 v -0.1 l 1.6,3.2 3.5,-2.2 c -1.5,-3.8 -1.5,-8.6 -9.9,-6.8 z"
   id="path312"
   inkscape:connector-curvature="0"
   style="fill:#2f2e41" />
	<g
   id="g330">
		<g
   id="g320">
			<path
   class="st15"
   d="m 654.8,254.8 c 0,0 -0.1,0.1 -0.1,0.1 -0.3,0.5 -0.6,1.1 -0.7,1.6 -0.1,0.6 -0.2,1.3 -0.3,1.9 0,0.1 0,0.1 0,0.2 0,0 0,0 -0.1,0 -0.2,-1.6 -0.7,-3.1 -1.7,-4.4 0.3,-0.7 0.8,-1.3 1.3,-1.9 0.2,0.2 0.3,0.3 0.4,0.5 0.5,0.6 0.9,1.2 1.2,1.8 -0.1,0.1 -0.1,0.1 0,0.2 0,0 0,0 0,0 z"
   id="path314"
   inkscape:connector-curvature="0"
   style="fill:#4d4d4d" />
			<path
   class="st15"
   d="m 640,258.8 c 0,-0.6 0.1,-1.2 0.1,-1.8 1,-1.1 1.7,-2.5 2,-4.2 0,0.1 0,0.1 0,0.2 0,1.2 0,2.4 0,3.7 0,0.2 0,0.3 -0.1,0.4 -0.5,0.7 -1.1,1.3 -1.7,1.7 -0.1,-0.1 -0.2,-0.1 -0.3,0 z"
   id="path316"
   inkscape:connector-curvature="0"
   style="fill:#4d4d4d" />
			<path
   class="st15"
   d="m 645.9,252.5 c 0.1,1.4 0.4,2.7 1.1,4 -0.4,0.8 -0.9,1.6 -1.6,2.3 -0.2,-0.3 -0.4,-0.5 -0.5,-0.7 -0.2,-0.4 -0.4,-0.7 -0.7,-1.1 0,0 0,-0.1 0,-0.1 0.3,-0.6 0.6,-1.1 0.9,-1.7 0.2,-0.6 0.4,-1.3 0.6,-1.9 0,-0.3 0.1,-0.6 0.2,-0.8 -0.1,0 -0.1,0 0,0 z"
   id="path318"
   inkscape:connector-curvature="0"
   style="fill:#4d4d4d" />
		</g>
		<path
   d="m 629.1,251.3 c 0.1,-0.6 0.2,-1.1 0.3,-1.6 0.8,-2.5 2.5,-4.1 5,-4.6 2.2,-0.4 4.1,0.2 5.7,1.8 1.5,1.6 2.1,3.5 2,5.7 -0.1,0.9 -0.3,1.7 -0.6,2.4 -0.4,0.9 -1,1.7 -1.8,2.3 -1.4,1.1 -3,1.7 -4.8,1.5 -2.6,-0.3 -4.3,-1.8 -5.3,-4.2 -0.2,-0.6 -0.3,-1.2 -0.5,-1.9 0,-0.1 0,-0.1 0,-0.2 0,-0.4 0,-0.8 0,-1.2 z m 10.6,0.5 c 0,-0.8 -0.2,-1.5 -0.6,-2.2 -1.3,-2.4 -4.4,-3 -6.3,-1.1 -1.7,1.5 -1.9,4.2 -0.6,6 1.2,1.7 3.3,2.2 5.1,1.3 1.7,-0.8 2.4,-2.2 2.4,-4 z"
   id="path322"
   inkscape:connector-curvature="0" />
		<path
   d="m 657.3,258.8 c -0.7,0 -1.4,0 -2.1,0 -0.2,-1.1 -0.4,-2.2 -0.7,-3.3 -0.3,-1.1 -0.8,-2.1 -1.5,-3 0.6,0 1.1,0 1.6,0 0.3,0 0.6,0 0.9,0 0.2,0 0.3,0.1 0.4,0.2 0.8,1.6 1.2,3.2 1.4,5 0,0.1 0,0.3 0.1,0.4 -0.1,0.2 -0.1,0.4 -0.1,0.7 z"
   id="path324"
   inkscape:connector-curvature="0" />
		<path
   d="m 653.5,258.7 c -0.7,0 -1.5,0 -2.1,0 -0.2,-0.8 -0.3,-1.7 -0.6,-2.5 -0.3,-0.8 -0.7,-1.5 -1.1,-2.2 0,0 -0.1,0 -0.1,0 0,0.2 -0.1,0.4 -0.1,0.6 -0.2,1.4 -0.6,2.7 -1.3,3.9 0,0.1 -0.1,0.2 -0.2,0.2 -0.8,0 -1.7,0 -2.6,0 0.7,-0.9 1.2,-1.9 1.5,-3 0.3,-1.1 0.5,-2.2 0.7,-3.3 0,0 0,0 -0.1,0 0.1,0 0.2,0 0.3,0 1,0 2,0 3,0 0.1,0 0.3,0.1 0.4,0.2 0.7,0.8 1.3,1.7 1.6,2.7 0.4,1 0.6,2 0.7,3.1 0,0.2 0,0.2 0,0.3 z"
   id="path326"
   inkscape:connector-curvature="0" />
		<path
   d="m 645.8,252.4 c -0.1,0.5 -0.2,1.1 -0.3,1.6 -0.2,0.9 -0.4,1.7 -0.8,2.5 -0.4,0.8 -0.9,1.5 -1.5,2.2 0,0 -0.1,0.1 -0.2,0.1 -1,0 -2.1,0 -3.2,0 0.1,-0.1 0.2,-0.2 0.3,-0.2 0.7,-0.4 1.3,-1 1.9,-1.7 0.9,-1.1 1.3,-2.4 1.5,-3.8 0,-0.1 0.1,-0.3 0.1,-0.4 0,-0.1 0.1,-0.1 0.2,-0.1 0.6,-0.2 1.3,-0.2 2,-0.2 z"
   id="path328"
   inkscape:connector-curvature="0" />
	</g>
</g>
</svg>