<?xml version="1.0" encoding="UTF-8" standalone="no"?>
<!-- Created with Inkscape (http://www.inkscape.org/) -->

<svg
   xmlns:dc="http://purl.org/dc/elements/1.1/"
   xmlns:cc="http://creativecommons.org/ns#"
   xmlns:rdf="http://www.w3.org/1999/02/22-rdf-syntax-ns#"
   xmlns:svg="http://www.w3.org/2000/svg"
   xmlns="http://www.w3.org/2000/svg"
   xmlns:xlink="http://www.w3.org/1999/xlink"
   xmlns:sodipodi="http://sodipodi.sourceforge.net/DTD/sodipodi-0.dtd"
   xmlns:inkscape="http://www.inkscape.org/namespaces/inkscape"
   width="271.10751mm"
   height="176.58231mm"
   viewBox="0 0 271.10751 176.58231"
   version="1.1"
   id="svg367"
   inkscape:version="0.92.5 (2060ec1f9f, 2020-04-08)"
   sodipodi:docname="signup_bg.svg">
  <defs
     id="defs361">
    <clipPath
       id="SVGID_00000182528042245671762420000008059885190844790166_">
      <use
         xlink:href="#SVGID_1_"
         style="overflow:visible"
         id="use7"
         x="0"
         y="0"
         width="100%"
         height="100%" />
    </clipPath>
    <rect
       id="SVGID_1_"
       y="11.7"
       width="734.09998"
       height="468.60001"
       x="0" />
  </defs>
  <sodipodi:namedview
     id="base"
     pagecolor="#ffffff"
     bordercolor="#666666"
     borderopacity="1.0"
     inkscape:pageopacity="0.0"
     inkscape:pageshadow="2"
     inkscape:zoom="0.35"
     inkscape:cx="406.61031"
     inkscape:cy="547.98457"
     inkscape:document-units="mm"
     inkscape:current-layer="g12"
     showgrid="false"
     inkscape:window-width="1920"
     inkscape:window-height="1043"
     inkscape:window-x="0"
     inkscape:window-y="0"
     inkscape:window-maximized="1" />
  <metadata
     id="metadata364">
    <rdf:RDF>
      <cc:Work
         rdf:about="">
        <dc:format>image/svg+xml</dc:format>
        <dc:type
           rdf:resource="http://purl.org/dc/dcmitype/StillImage" />
        <dc:title></dc:title>
      </cc:Work>
    </rdf:RDF>
  </metadata>
  <g
     inkscape:label="Layer 1"
     inkscape:groupmode="layer"
     id="layer1"
     transform="translate(1.7489786,-117.23861)">
    <g
       id="g12"
       transform="matrix(0.26458333,0,0,0.26458333,15.328662,73.919959)">
      <defs
         id="defs5">
        <rect
           id="rect384"
           y="11.7"
           width="734.09998"
           height="468.60001"
           x="0" />
      </defs>
      <clipPath
         id="clipPath355">
        <use
           xlink:href="#SVGID_1_"
           style="overflow:visible"
           id="use353"
           x="0"
           y="0"
           width="100%"
           height="100%" />
      </clipPath>
      <path
         style="fill:#f6f6f6;fill-opacity:1;stroke-width:0.5364576"
         d="m -64.447314,163.72404 v 0.39396 l -7e-4,-0.002 v 0.0219 l -0.011,-0.0219 -0.01,102.94296 c -0.054,0.0355 -0.053,0.0601 0,0.0776 l -8e-4,9.7554 c -0.064,0.051 -0.064,0.0729 0,0.0679 v 0.84832 c -2e-4,0.003 -8e-4,0.003 -8e-4,0.005 -4e-4,0.005 10e-4,0.0104 8e-4,0.0155 v 3.3904 c -0.058,0.0558 -0.06,0.0829 0,0.0811 v 0.48253 c -0.04,0.0135 -0.04,0.0299 0,0.0506 v 1.3809 0.001 c -0.024,0.0612 -0.041,0.12308 -0.04,0.18289 8e-4,0.0466 0.013,0.0807 0.029,0.10927 -0.05,0.10175 -0.046,0.18154 0.011,0.24616 v 1.07952 10e-4 c -0.031,0.0601 -0.05,0.12963 -0.05,0.20935 0,0.0801 0.018,0.14962 0.049,0.20992 v 9.04166 0.003 c -0.034,0.30455 -0.049,0.68279 -0.049,1.15027 0,0.46778 0.014,0.8462 0.048,1.15084 v 2.34482 c -0.011,0.0951 -0.019,0.18891 0,0.27491 v 1.67593 c -0.021,0.11489 -0.013,0.23524 0,0.35601 v 3.22304 4.1e-4 c -0.03,0.0582 -0.048,0.12439 -0.048,0.20072 0,0.0771 0.019,0.14479 0.048,0.2036 l -8e-4,12.11171 v 4.1e-4 c -0.021,0.0319 -0.019,0.0644 0,0.0966 v 1.24344 10e-4 c -0.021,0.0588 -0.037,0.11922 -0.036,0.1829 0,0.15267 0.014,0.26544 0.036,0.34162 v 3.87927 c -7e-4,1.96493 0,4.34623 0,6.35809 -0.052,0.0354 -0.052,0.0613 0,0.0794 -1e-4,0.3135 2e-4,0.88105 0,1.1957 -1e-4,0.38129 -7e-4,0.71508 -7e-4,1.09735 -4e-4,0.6868 -6e-4,1.28162 -8e-4,1.97155 -0.052,0.0435 -0.052,0.0632 0,0.0609 -2e-4,0.48069 2e-4,0.89122 0,1.37342 0,0 0,4.2e-4 0,4.2e-4 -0.016,0.0286 -0.029,0.0628 -0.03,0.10927 -8e-4,0.0452 0.011,0.0926 0.029,0.14033 -10e-5,0.12022 0,0.2219 0,0.3422 -0.023,0.12246 -0.04,0.25425 -0.04,0.40088 0,0.11946 0.017,0.23219 0.04,0.34048 -8e-4,2.10839 0,3.85058 0,5.98712 0,4.1e-4 0,10e-4 0,10e-4 -0.019,0.0621 -0.036,0.12586 -0.036,0.19497 0,0.0627 0.015,0.11734 0.036,0.16736 -4e-4,0.94442 0,1.69462 0,2.64445 -3e-4,0.57345 -6e-4,1.02117 -8e-4,1.59657 0,0.0702 -0.01,0.13957 -0.01,0.21164 0,6.7e-4 0,0.001 0,0.003 -0.015,0.0912 -0.026,0.186 -0.026,0.28584 0,0.15918 0.014,0.29135 0.033,0.41064 -7e-4,3.16079 0,5.5356 0,8.75358 0,0.11985 0,0.20609 0,0.32607 0,0.007 0,0.009 0,0.0147 0,4.1768 -0.01,7.08543 -0.01,11.35422 -3e-4,0.95431 4e-4,2.14131 0,3.10003 -0.01,13.35643 -0.01,29.03976 -0.01,43.18951 -5e-4,3.65699 -0.001,7.45794 0,11.16222 -5e-4,0.007 0,0.008 0,0.014 -1e-4,0.007 0,0.012 0,0.018 -2e-4,0.71769 1e-4,1.44312 0,2.16255 -0.01,0.007 -0.01,0.0114 0,0.0207 -4e-4,1.81997 -5e-4,3.63988 -8e-4,5.47068 -5e-4,3.33298 -0.001,6.59194 0,9.95959 -7e-4,0.014 -0.01,0.0261 -0.01,0.0401 0,0.0234 0,0.0434 0.01,0.0648 0,0.45435 1e-4,0.88858 0,1.34352 -7e-4,0.009 -2e-4,0.0187 0,0.0281 -7e-4,9.20322 0,17.74173 -0.01,27.17784 -3e-4,0.008 0,0.0154 0,0.0234 0,0.009 0,0.016 0,0.0254 0,0.36422 0,0.68448 0,1.04904 -5e-4,0 -5e-4,0.007 0,0.007 0,0.24818 0,0.46603 0,0.71435 0,0.0287 0,0.0541 0,0.0834 0,0.081 0,0.15192 0,0.23295 0,0 0,0 0,0 0,0 0,0 0,0 -5e-4,0.007 0,0.0134 0,0.0207 0,0.009 0,0.018 0,0.0274 -5e-4,6.74733 0,12.55143 0,19.40151 0,0 0,0 0,0 0,0 0,0 0,0 0,0 0,0 0,0 0,0 0,0 0,0 0,0 0,0 0,0 0,0 0,0 0,0 0,0 -7e-4,0 -7e-4,0 0,0 7e-4,0 7e-4,0 0,0 0,0 0,0 0,0 0,0 0,0 0,0 0,0 0,0 0,0 0,0 0,0.007 0,0.50171 -7e-4,0.91844 -7e-4,1.42061 0,0.35414 0,0.64748 0,1.00188 0,0.29915 0,0.54667 0,0.84602 0,0.28105 0,0.51307 0,0.79425 0,0.0127 0,0.0227 0,0.0347 0,0 0,0 0,0 0,0.0608 0,0.11069 0,0.17135 0,0.0127 0,0.0227 0,0.0347 0,0.0107 0,0.02 0,0.0307 0,0.012 0,0.0214 0,0.0334 0,0.0347 0,0.0635 0,0.0978 v 71.42915 c 0,0.0261 0,0.0474 0,0.0736 0,0 0,0 0,0.007 0,0 0,0.007 0,0.007 0,0.0214 0,0.0321 0,0.0535 0,0.32748 0,0.59764 0,0.92538 v 13.79802 4.52512 c -1e-4,0 0,0.007 0,0.007 0,0 0,0.007 0,0.007 0,0.60419 0,0.89172 0,1.49878 v 12.36484 6.38625 5.24521 14.48291 5.69214 148.63323 15.64988 l -0.01,19.8864 -0.025,12.3665 h 0.033 v 0 0 0.01 0.027 0.01 0 0 0 0.01 0.01 0.01 0.01 0 0.01 0 0 0 0 0 0 0.01 0.01 l 148.5579,-0.06 199.426054,0.01 c 26.08165,0 52.21058,-0.01 78.14759,-0.01 0.0469,0.01 0.0933,0.01 0.14173,0.01 0.053,0 0.10065,-0.01 0.14925,-0.01 1.39628,0 2.74984,0 4.14447,0 0,0 7.8e-4,0 7.8e-4,0 1.58582,0 3.12784,0 4.71141,-0.01 0.0504,0.01 0.10227,0.01 0.1557,0.01 0.0423,0 0.0791,-0.01 0.11486,-0.01 9.78077,-0.01 19.43207,-0.01 29.10174,-0.01 8.11056,-0.01 20.13948,-0.01 27.65012,-0.01 0.14288,0.01 0.29114,0.016 0.44666,0.015 0.26535,0 0.44528,-0.01 0.61521,-0.016 0.002,0 0.007,0 0.01,0 6.74407,-0.01 13.1268,-0.01 19.39968,-0.01 0.0812,0.017 0.19517,0.013 0.32216,0 0.0344,0 0.0621,0 0.0967,0 0.002,-1e-4 0.005,10e-5 0.007,0 0.31253,-1e-4 0.56589,0 0.87721,0 0.6101,-3e-4 1.11553,0 1.72117,0 0,0 7.7e-4,0 7.7e-4,0 0.0832,0.019 0.1718,0.031 0.26525,0.031 0.0932,0 0.16816,-0.011 0.23084,-0.031 0.67975,0 1.2617,0 1.9359,0 0,0 7.7e-4,0 7.7e-4,0 0.18758,0.024 0.34463,0.028 0.43919,0 1.21459,0 2.29301,0 3.48952,-0.01 1.64509,0 3.19254,-0.01 4.80376,-0.01 5.7e-4,0 10e-4,0 0.002,0 0.32402,0.023 0.70465,0.037 1.1478,0.037 0.55326,0 0.98469,-0.013 1.32603,-0.038 0.48629,-3e-4 0.98243,0 1.46559,0 0.61482,0 1.25313,0 1.8629,0 0.15178,0.01 0.30093,0.015 0.44023,0.012 0.21561,-0.01 0.33193,-0.01 0.48531,-0.013 7.6e-4,0 0.002,0 0.002,0 7.83684,-0.01 17.0487,-0.01 24.06714,-0.013 7.46686,-0.01 12.87133,-0.013 19.45236,-0.02 0.0631,0.01 0.12359,0.017 0.18679,0.023 0.24349,0.022 0.48762,0.035 0.71725,0.041 0.22952,0.01 0.4465,0 0.6367,-0.013 0.15944,-0.011 0.29472,-0.029 0.41017,-0.053 1.9254,-0.01 3.89714,-0.01 5.74755,-0.01 0.41386,0.073 1.08068,0.087 1.77593,0.054 0.009,0 0.0132,0.01 0.0226,0.01 0.1365,0.011 0.33253,0.017 0.58948,0.018 0.17597,0 0.34403,-0.01 0.49713,-0.028 0,0 0,0 0,0 0.0763,-0.01 0.14892,-0.022 0.21688,-0.035 0.0203,-0.01 0.0374,-0.01 0.057,-0.015 2.27217,-0.01 5.0593,-0.01 7.21636,-0.01 3.57527,-0.01 7.291,-0.01 10.80684,-0.01 0.26547,0.062 0.66837,0.099 1.17787,0.099 0.51643,0 0.92456,-0.037 1.1897,-0.1012 0.94577,0 1.97702,-0.01 2.91827,-0.01 0.0473,0.042 0.11935,0.043 0.22012,0 0.98425,0 2.07339,0 3.05258,-0.01 0.24233,0.06 0.47333,0.1022 0.64529,0.1006 0.19505,-0.01 0.26409,-0.041 0.22765,-0.1012 7.38819,-0.01 14.10939,-0.014 21.19276,-0.021 0.26146,0.074 0.7913,0.089 1.65246,0.054 0.28043,-0.011 0.54738,-0.031 0.79559,-0.056 1.1379,0 2.2045,-0.01 3.33388,-0.01 0.0616,0.01 0.11561,0.01 0.15888,0 0.65374,0 1.27968,-0.01 1.93057,-0.01 0.0347,0 0.0597,0.01 0.0965,0.01 0.039,0 0.0725,-0.01 0.11062,-0.01 4.22276,-0.01 8.43398,-0.01 12.53122,-0.013 0.5686,0.093 1.21876,0.1511 1.80924,0.1511 0.84869,0 1.34933,-0.049 1.5579,-0.1552 0.49949,0 1.0433,0 1.54081,0 0.089,0.013 0.16465,0.013 0.22115,0 0.84061,0 1.76994,-0.01 2.60483,-0.01 0.95863,0.1882 1.65427,0.1919 1.71365,-0.01 0.32235,0 0.68886,0 1.01035,0 0.0595,0.1535 0.22171,0.1546 0.45953,0 0.67738,0 1.45784,-0.01 2.13133,-0.01 0.53335,0.095 1.12086,0.147 1.6363,0.1547 0.0553,0.01 0.11287,0.011 0.17178,0.011 0.074,0 0.13574,-0.01 0.19219,-0.017 0.1678,-0.01 0.33491,-0.012 0.46602,-0.029 0.16156,-0.022 0.29054,-0.053 0.37366,-0.094 0,0 0,0 0,0 0.0165,-0.01 0.0224,-0.019 0.0357,-0.028 0.46815,0 1.0273,0 1.49353,-0.01 0.18525,0.1014 0.6157,0.1662 1.1993,0.1639 0.62625,-0.01 0.97748,-0.021 1.10058,-0.069 0.22786,0.01 0.46611,0.01 0.7151,0.01 0.37574,0 0.64456,-0.01 0.93943,-0.014 0.31413,0.044 0.6531,0.076 0.99641,0.074 0.91872,-0.01 1.22619,-0.042 1.02328,-0.1714 50.29248,-0.064 88.75525,-0.1403 107.23218,-0.2225 3.89718,-0.017 5.49207,-0.026 9.26179,-0.043 1.95158,-0.01 3.32759,-0.01 5.25149,-0.01 10.87239,-0.012 21.74242,-0.024 31.6485,-0.037 119.91872,-0.1396 179.30156,-0.2946 186.67786,-0.4848 l 3.5475,-0.011 0.2438,-1.1462 c 0.14,-0.6575 -0.09,-2.7948 -0.5455,-5.6639 -1.2165,-13.1448 -9.1438,-38.86525 -18.1005,-58.30183 C 899.42451,673.74577 808.44516,601.0081 679.09205,555.15285 627.66651,536.92037 576.31765,524.14995 511.13497,513.37994 465.09504,505.77283 435.16143,499.47717 398.72431,489.73624 347.56325,476.07591 298.08734,458.37767 252.49506,437.44558 213.49902,419.54198 174.57055,397.85139 140.35179,374.96091 68.897186,327.16179 8.2295859,269.23115 -36.043114,206.52536 c -6.5444,-9.26918 -21.0585,-32.28116 -24.8317,-39.37126 -0.8364,-1.57158 -1.8091,-2.76164 -2.1613,-2.64503 -0.2471,0.0818 -0.5354,-0.003 -0.7505,-0.19037 -0.092,-0.0798 -0.1713,-0.17626 -0.2266,-0.28987 0,-0.005 0,0.28278 -0.01,0.32208 -0.01,-0.008 -0.018,-0.0241 -0.023,-0.0322 -3e-4,-5.8e-4 -5e-4,0.0412 -7e-4,0.0414 l -0.3737,-0.63034 v 0.0109 l -0.01,-0.0109 v 0.0397 z"
         id="path1298-3"
         inkscape:connector-curvature="0" />
    </g>
  </g>
</svg>
